<?xml version="1.0" encoding="utf-8"?>
<!-- Generator: Adobe Illustrator 26.2.1, SVG Export Plug-In . SVG Version: 6.00 Build 0)  -->
<svg version="1.1" id="Layer_1" xmlns="http://www.w3.org/2000/svg" xmlns:xlink="http://www.w3.org/1999/xlink" x="0px" y="0px"
	 viewBox="0 0 416.44 343.84" style="enable-background:new 0 0 416.44 343.84;" xml:space="preserve">
<style type="text/css">
	.st0{fill:#CAC8C8;}
	.st1{fill:none;stroke:#D0D0D0;stroke-linecap:round;stroke-miterlimit:10;}
</style>
<g id="Layer_1_00000103978836442200971060000001146899104963968439_">
</g>
<g>
	<path class="st0" d="M185.03,46.29h1.81v0.5h-1.81V46.29z"/>
	<path class="st0" d="M191.87,46.06h-2.46V43.1h0.55v1h1.37v-1h0.55V46.06z M191.32,44.56h-1.37v1.03h1.37V44.56z M190.21,46.89
		h4.27v2.15h-0.58v-1.69h-3.69V46.89z M194.48,42.7v3.8h-0.56v-1.68h-0.81v1.65h-0.55v-3.66h0.55v1.54h0.81V42.7H194.48z"/>
	<path class="st0" d="M197.86,44.38c0,1.15,0.72,2.31,1.64,2.75l-0.34,0.46c-0.72-0.36-1.3-1.12-1.59-2.01
		c-0.28,0.94-0.86,1.74-1.58,2.12l-0.35-0.46c0.92-0.46,1.64-1.69,1.64-2.86v-1.14h0.58V44.38z M200.87,42.69v6.36h-0.58v-3.73
		h-1.47v-0.47h1.47v-2.15H200.87z"/>
	<path class="st0" d="M205.99,44.48c0,1.1,0.47,2.21,1.35,2.7l-0.35,0.42c-0.62-0.37-1.06-1.05-1.27-1.85
		c-0.22,0.87-0.68,1.61-1.31,2.01l-0.35-0.43c0.88-0.53,1.38-1.68,1.38-2.85v-0.57h-1.2v-0.47h2.9v0.47h-1.13V44.48z M207.69,42.83
		h0.55v5.88h-0.55v-3.26h-1.05v-0.47h1.05V42.83z M209.52,42.69v6.35h-0.56v-6.35H209.52z"/>
	<path class="st0" d="M214.03,46.25c-0.71-0.25-1.25-0.76-1.53-1.42c-0.27,0.71-0.84,1.27-1.59,1.54l-0.3-0.46
		c0.96-0.33,1.59-1.15,1.59-2.06v-0.25h-1.42v-0.47h3.41v0.47h-1.4v0.25c0,0.84,0.61,1.63,1.54,1.95L214.03,46.25z M211.43,46.86
		h4.13v2.19h-0.58v-1.72h-3.55V46.86z M216.51,44.84h-0.94v1.68h-0.58V42.7h0.58v1.66h0.94V44.84z"/>
	<path class="st0" d="M185.03,56.2h1.81v0.5h-1.81V56.2z"/>
	<path class="st0" d="M191.25,54.29c0,1.12,0.72,2.27,1.61,2.72l-0.36,0.46c-0.67-0.36-1.25-1.1-1.54-1.98
		c-0.28,0.93-0.86,1.72-1.58,2.1l-0.35-0.47c0.91-0.47,1.64-1.68,1.64-2.84v-1.14h0.57V54.29z M195.06,55.66h-1.05v3.29h-0.58v-6.34
		h0.58v2.57h1.05V55.66z"/>
	<path class="st0" d="M200.87,52.61v3.41h-0.59v-1.42h-1.29c-0.11,0.75-0.75,1.25-1.62,1.25c-0.95,0-1.64-0.59-1.64-1.47
		c0-0.87,0.69-1.47,1.64-1.47c0.86,0,1.49,0.48,1.61,1.22h1.3v-1.51H200.87z M198.45,54.36c0-0.58-0.45-0.98-1.08-0.98
		s-1.08,0.4-1.08,0.98s0.45,0.99,1.08,0.99S198.45,54.95,198.45,54.36z M200.29,56.33h0.58v2.54h-4.06v-2.54h0.57v0.8h2.91V56.33z
		 M200.29,57.58h-2.91v0.82h2.91V57.58z"/>
	<path class="st0" d="M207.7,52.77h0.55v5.86h-0.55v-2.19h-1.15v-0.47h1.15v-1.12h-1.05c-0.3,1.07-0.98,2.03-2.19,2.74l-0.34-0.41
		c1.37-0.81,2.05-1.95,2.15-3.29h-1.86v-0.47h2.44c0,0.33-0.03,0.64-0.08,0.96h0.94V52.77z M209.52,52.6v6.34h-0.55V52.6H209.52z"/>
	<path class="st0" d="M214.79,56.41c-1.38,0.23-2.9,0.25-4.04,0.25l-0.08-0.46c0.53,0,1.15,0,1.78-0.02v-0.44
		c-0.74-0.08-1.21-0.42-1.21-0.93c0-0.58,0.6-0.95,1.5-0.95c0.91,0,1.52,0.37,1.52,0.95c0,0.52-0.47,0.86-1.22,0.93v0.41
		c0.59-0.03,1.17-0.07,1.73-0.15L214.79,56.41z M214.6,53.62h-3.72v-0.44h1.56v-0.62h0.58v0.62h1.57V53.62z M211.58,57.15h4.26v1.8
		h-0.58v-1.34h-3.67V57.15z M212.74,55.34c0.59,0,0.96-0.21,0.96-0.54c0-0.33-0.38-0.54-0.96-0.54c-0.57,0-0.96,0.21-0.96,0.54
		C211.78,55.13,212.16,55.34,212.74,55.34z M215.84,52.62v4.24h-0.58v-4.24H215.84z"/>
	<path class="st0" d="M222.52,56.16c-0.71-0.25-1.25-0.76-1.53-1.42c-0.27,0.71-0.84,1.27-1.59,1.54l-0.3-0.46
		c0.96-0.33,1.59-1.15,1.59-2.06v-0.25h-1.42v-0.47h3.41v0.47h-1.4v0.25c0,0.84,0.61,1.63,1.54,1.95L222.52,56.16z M219.93,56.77
		h4.13v2.19h-0.58v-1.72h-3.55V56.77z M225,54.75h-0.94v1.68h-0.58v-3.82h0.58v1.66H225V54.75z"/>
	<path class="st0" d="M229.06,56.06c-0.69-0.26-1.23-0.76-1.51-1.42c-0.27,0.75-0.84,1.32-1.61,1.61l-0.3-0.47
		c0.98-0.35,1.61-1.2,1.61-2.17v-0.65h0.58v0.63c0,0.91,0.62,1.69,1.54,2.02L229.06,56.06z M230.89,57.75c0,0.76-0.81,1.2-2.11,1.2
		s-2.12-0.44-2.12-1.2c0-0.76,0.81-1.2,2.12-1.2S230.89,56.98,230.89,57.75z M230.32,57.75c0-0.47-0.58-0.74-1.54-0.74
		s-1.54,0.28-1.54,0.74c0,0.46,0.58,0.74,1.54,0.74S230.32,58.21,230.32,57.75z M230.29,54.43h-1.38v-0.47h1.38v-1.35h0.59v3.75
		h-0.59V54.43z"/>
	<path class="st0" d="M185.03,76.02h1.81v0.5h-1.81V76.02z"/>
	<path class="st0" d="M191.83,76.66h-1.9l-0.5,1.59h-0.67l1.76-5.19h0.73l1.76,5.19h-0.69L191.83,76.66z M191.67,76.14l-0.25-0.79
		c-0.19-0.59-0.35-1.15-0.52-1.76h-0.03c-0.16,0.61-0.33,1.17-0.52,1.76l-0.25,0.79H191.67z"/>
	<path class="st0" d="M193.67,77.71h1.15v-3.87h-0.92v-0.41c0.46-0.08,0.79-0.21,1.08-0.37h0.5v4.65h1.04v0.54h-2.85V77.71z"/>
	<path class="st0" d="M200.06,76.66h-1.9l-0.5,1.59h-0.67l1.76-5.19h0.73l1.76,5.19h-0.69L200.06,76.66z M199.9,76.14l-0.25-0.79
		c-0.19-0.59-0.35-1.15-0.52-1.76h-0.03c-0.16,0.61-0.33,1.17-0.52,1.76l-0.25,0.79H199.9z"/>
	<path class="st0" d="M208.97,75.17v0.46h-5.75v-0.46H208.97z M204.5,78.25h3.92v0.45h-4.49v-1.49h3.72v-0.56h-3.75v-0.44h4.32v1.42
		h-3.73V78.25z M208.22,74.63h-4.23v-2.1h0.57v0.6h3.09v-0.6h0.57V74.63z M207.65,73.57h-3.09v0.61h3.09V73.57z"/>
	<path class="st0" d="M215.5,75.91v0.47h-5.76v-0.47h2.59v-0.67h-1.85v-1.55h3.71v-0.66h-3.72v-0.45h4.3v1.54h-3.71v0.67h3.84v0.45
		h-1.98v0.67H215.5z M210.38,76.87h4.42v1.84h-0.58v-1.37h-3.84V76.87z"/>
	<path class="st0" d="M218.1,74.37c0,1.01,0.51,2.06,1.37,2.52l-0.33,0.44c-0.62-0.35-1.07-0.99-1.3-1.76
		c-0.22,0.81-0.67,1.52-1.29,1.89l-0.34-0.43c0.86-0.51,1.35-1.62,1.35-2.66v-0.3h-1.18v-0.48h1.18v-0.94h0.56v0.94h1.17v0.48h-1.17
		V74.37z M219.81,72.57h0.55v5.87h-0.55v-3.03h-0.97v-0.48h0.97V72.57z M221.65,72.42v6.34h-0.56v-6.34H221.65z"/>
	<path class="st0" d="M224.56,75.99c-0.94,0-1.65-0.65-1.65-1.57c0-0.91,0.71-1.56,1.65-1.56c0.95,0,1.66,0.64,1.66,1.56
		C226.23,75.34,225.51,75.99,224.56,75.99z M224.56,75.49c0.63,0,1.1-0.44,1.1-1.07c0-0.62-0.47-1.06-1.1-1.06
		c-0.62,0-1.08,0.44-1.08,1.06C223.48,75.05,223.95,75.49,224.56,75.49z M228.17,78.15v0.47h-4.28v-2.04h0.58v1.56H228.17z
		 M227.97,77.06h-0.58v-4.64h0.58V77.06z"/>
	<path class="st0" d="M232.96,75.23c-0.59,0.01-1.15,0.02-1.66,0.02l-0.07-0.44c1.23,0,2.78-0.01,4.13-0.16l0.04,0.38
		c-0.62,0.08-1.25,0.13-1.86,0.17v0.98h-0.58V75.23z M231.72,73.5c0-0.59,0.62-0.96,1.56-0.96s1.56,0.36,1.56,0.96
		c0,0.58-0.62,0.94-1.56,0.94S231.72,74.08,231.72,73.5z M236.67,78.27v0.42h-4.46v-1.38h3.67v-0.51h-3.69v-0.42h4.26v1.32h-3.67
		v0.56H236.67z M232.27,73.5c0,0.33,0.4,0.54,1.02,0.54c0.62,0,1.02-0.22,1.02-0.54c0-0.34-0.4-0.55-1.02-0.55
		C232.67,72.95,232.27,73.16,232.27,73.5z M235.87,75.44v-3.02h0.58v3.73h-0.58v-0.33h-1.26v-0.38H235.87z"/>
	<path class="st0" d="M240.83,75.91c-0.79,0.16-1.46,0.19-2.37,0.19h-0.41v-1.85h1.68v-0.88h-1.69v-0.46h2.25v1.78h-1.68v0.94
		c0.81-0.01,1.43-0.04,2.16-0.18L240.83,75.91z M241.3,76.63c0,0.81,1.03,1.49,2.15,1.66l-0.23,0.45c-0.94-0.16-1.83-0.64-2.22-1.34
		c-0.38,0.7-1.27,1.18-2.21,1.34l-0.23-0.45c1.11-0.17,2.14-0.85,2.14-1.66v-0.16h0.59V76.63z M241.32,74.53h-0.78v-0.47h0.78v-1.49
		h0.55v3.69h-0.55V74.53z M243.13,76.77h-0.56v-4.34h0.56V76.77z"/>
	<path class="st0" d="M249.43,75.68v0.59h1.84v1.39h-3.73v0.6h3.92v0.44h-4.49v-1.46h3.72V76.7h-3.75v-0.43h1.89v-0.59h-2.57v-0.45
		H252v0.45H249.43z M246.57,74.52c1.17-0.08,2.15-0.47,2.24-1.1h-1.96v-0.44h2v-0.6h0.58v0.6h1.99v0.44h-1.95
		c0.1,0.63,1.05,1.02,2.24,1.1l-0.18,0.44c-1.06-0.08-2-0.41-2.39-1c-0.39,0.59-1.33,0.91-2.4,1L246.57,74.52z"/>
	<path class="st0" d="M255.03,74.11c0,1.16,0.76,2.33,1.7,2.75l-0.35,0.47c-0.72-0.35-1.33-1.1-1.64-2.01
		c-0.29,0.96-0.9,1.75-1.64,2.13l-0.35-0.47c0.93-0.45,1.71-1.66,1.71-2.87v-1.14h0.57V74.11z M257.97,72.42v6.36h-0.58v-6.36
		H257.97z"/>
	<path class="st0" d="M185.03,95.83h1.81v0.5h-1.81V95.83z"/>
	<path class="st0" d="M192.86,95.49c-0.87,0.18-1.62,0.22-2.95,0.22h-0.5v-2.92h2.81v0.47h-2.23v1.98c1.25,0,1.98-0.05,2.8-0.21
		L192.86,95.49z M190.68,97.97h3.65v0.47h-4.23v-2.07h0.58V97.97z M194.99,94.12v0.48h-0.94v2.23h-0.58v-4.59h0.58v1.88H194.99z"/>
	<path class="st0" d="M198.81,95.14h-2.92V92.6h2.92V95.14z M198.25,93.06h-1.78v1.62h1.78V93.06z M197.11,98.04h3.68v0.47h-4.25
		V96.9h3.44v-0.67h-3.46v-0.46h4.04v1.56h-3.45V98.04z M201.5,93.6v0.48h-0.94v1.39h-0.58v-3.23h0.58v1.36H201.5z"/>
	<path class="st0" d="M205.5,92.92c0,1.83-0.84,3.45-2.95,4.48l-0.31-0.47c1.71-0.81,2.56-2.03,2.68-3.54h-2.39v-0.47H205.5z
		 M207.36,92.24v6.35h-0.58v-6.35H207.36z"/>
	<path class="st0" d="M216.4,97.26v0.48h-5.76v-0.48H216.4z M215.85,95.91c-0.96-0.22-1.95-0.9-2.36-1.83
		c-0.4,0.93-1.39,1.61-2.35,1.83l-0.26-0.48c1.11-0.22,2.31-1.18,2.31-2.26v-0.49h0.61v0.49c0,1.08,1.2,2.05,2.31,2.26L215.85,95.91
		z"/>
	<path class="st0" d="M220.35,95.54c-1,0.18-2.33,0.2-3.16,0.2l-0.06-0.48c0.19,0,0.41,0,0.65,0v-1.98h-0.54V92.8h2.96v0.47h-0.54
		v1.9c0.23-0.01,0.46-0.04,0.67-0.06L220.35,95.54z M218.19,96.41h4.32v2.18h-0.58v-1.71h-3.74V96.41z M218.3,95.24
		c0.26-0.01,0.54-0.01,0.81-0.03v-1.94h-0.81V95.24z M222.51,92.24v3.84h-0.55v-1.71h-0.79v1.67h-0.54v-3.7h0.54v1.55h0.79v-1.66
		H222.51z"/>
	<path class="st0" d="M229.06,95.39c-0.7-0.25-1.25-0.75-1.53-1.39c-0.27,0.71-0.84,1.27-1.59,1.54l-0.3-0.46
		c0.96-0.33,1.59-1.13,1.59-2.05v-0.59h0.57v0.59c0,0.83,0.64,1.6,1.56,1.9L229.06,95.39z M231.12,98.04v0.46h-4.32v-1.58h3.5V96.3
		h-3.52v-0.46h4.09v1.52h-3.5v0.68H231.12z M230.29,93.87h-1.38v-0.47h1.38v-1.15h0.59v3.28h-0.59V93.87z"/>
	<path class="st0" d="M235.72,92.41h0.55v5.85h-0.55v-2.19h-1.15v-0.47h1.15v-1.12h-1.05c-0.3,1.07-0.98,2.02-2.19,2.74l-0.34-0.41
		c1.37-0.81,2.05-1.95,2.15-3.29h-1.86v-0.47h2.44c0,0.33-0.03,0.64-0.08,0.96h0.94V92.41z M237.55,92.24v6.34H237v-6.34H237.55z"/>
</g>
<g>
	<path class="st0" d="M155.33,18.77c2.15-1.9,3.26-3.32,3.26-4.52c0-0.79-0.43-1.34-1.24-1.34c-0.57,0-1.05,0.37-1.44,0.81
		l-0.64-0.63c0.62-0.67,1.27-1.09,2.22-1.09c1.34,0,2.2,0.87,2.2,2.19c0,1.41-1.12,2.86-2.66,4.34c0.38-0.04,0.83-0.07,1.19-0.07
		h1.82v0.97h-4.7V18.77z"/>
	<path class="st0" d="M161.01,15.76c0-2.53,0.92-3.75,2.36-3.75c1.43,0,2.36,1.24,2.36,3.75c0,2.54-0.93,3.8-2.36,3.8
		C161.93,19.56,161.01,18.29,161.01,15.76z M164.64,15.76c0-2.09-0.53-2.85-1.27-2.85c-0.74,0-1.27,0.76-1.27,2.85
		c0,2.11,0.52,2.9,1.27,2.9C164.11,18.66,164.64,17.87,164.64,15.76z"/>
	<path class="st0" d="M166.63,18.77c2.15-1.9,3.26-3.32,3.26-4.52c0-0.79-0.43-1.34-1.24-1.34c-0.58,0-1.05,0.37-1.44,0.81
		l-0.64-0.63c0.62-0.67,1.27-1.09,2.22-1.09c1.34,0,2.2,0.87,2.2,2.19c0,1.41-1.12,2.86-2.66,4.34c0.38-0.04,0.83-0.07,1.19-0.07
		h1.82v0.97h-4.7V18.77z"/>
	<path class="st0" d="M172.7,18.49h1.59v-5.07h-1.31V12.7c0.68-0.13,1.17-0.3,1.58-0.55h0.86v6.35h1.43v0.94h-4.16V18.49z"/>
</g>
<g>
	<path class="st0" d="M160.95,47.95c1.84-1.63,2.8-2.85,2.8-3.88c0-0.68-0.37-1.15-1.06-1.15c-0.49,0-0.9,0.31-1.23,0.7l-0.55-0.54
		c0.54-0.58,1.09-0.94,1.9-0.94c1.15,0,1.89,0.75,1.89,1.88c0,1.21-0.96,2.46-2.29,3.72c0.32-0.03,0.71-0.06,1.02-0.06h1.56v0.83
		h-4.04V47.95z"/>
	<path class="st0" d="M171.54,49.98c-0.2,0.09-0.55,0.16-0.96,0.16c-1.21,0-2.05-0.65-2.43-1.55c-1.35-0.23-2.25-1.42-2.25-3.23
		c0-2.01,1.11-3.22,2.72-3.22s2.73,1.21,2.73,3.22c0,1.76-0.86,2.93-2.14,3.2c0.28,0.53,0.86,0.77,1.49,0.77
		c0.27,0,0.49-0.04,0.66-0.09L171.54,49.98z M168.62,47.82c1.04,0,1.72-0.94,1.72-2.46c0-1.47-0.68-2.36-1.72-2.36
		s-1.71,0.89-1.71,2.36C166.91,46.88,167.58,47.82,168.62,47.82z"/>
</g>
<g>
	<path class="st0" d="M160.81,76.26l0.48-0.63c0.37,0.37,0.83,0.69,1.48,0.69c0.71,0,1.19-0.39,1.19-1.04c0-0.7-0.44-1.15-1.85-1.15
		v-0.72c1.23,0,1.64-0.47,1.64-1.1c0-0.55-0.37-0.9-0.96-0.91c-0.48,0.01-0.89,0.25-1.25,0.6l-0.51-0.61
		c0.49-0.44,1.07-0.76,1.79-0.76c1.12,0,1.91,0.58,1.91,1.62c0,0.72-0.42,1.22-1.08,1.47v0.04c0.72,0.18,1.29,0.72,1.29,1.56
		c0,1.13-0.94,1.79-2.09,1.79C161.87,77.12,161.23,76.72,160.81,76.26z"/>
	<path class="st0" d="M171.54,78.47c-0.2,0.09-0.55,0.16-0.96,0.16c-1.21,0-2.05-0.65-2.43-1.55c-1.35-0.23-2.25-1.42-2.25-3.23
		c0-2.01,1.11-3.22,2.72-3.22s2.73,1.21,2.73,3.22c0,1.76-0.86,2.93-2.14,3.2c0.28,0.53,0.86,0.77,1.49,0.77
		c0.27,0,0.49-0.04,0.66-0.09L171.54,78.47z M168.62,76.31c1.04,0,1.72-0.94,1.72-2.46c0-1.47-0.68-2.36-1.72-2.36
		s-1.71,0.89-1.71,2.36C166.91,75.37,167.58,76.31,168.62,76.31z"/>
</g>
<g>
	<path class="st0" d="M165.16,95.01h-0.8v1.68h-0.92v-1.68h-2.7v-0.65l2.49-3.92h1.13v3.82h0.8V95.01z M163.45,94.26v-1.64
		c0-0.34,0.03-0.87,0.05-1.21h-0.03c-0.15,0.31-0.32,0.64-0.5,0.96l-1.23,1.89H163.45z"/>
	<path class="st0" d="M171.54,98.16c-0.2,0.09-0.55,0.16-0.96,0.16c-1.21,0-2.05-0.65-2.43-1.55c-1.35-0.23-2.25-1.42-2.25-3.23
		c0-2.01,1.11-3.22,2.72-3.22s2.73,1.21,2.73,3.22c0,1.76-0.86,2.93-2.14,3.2c0.28,0.53,0.86,0.77,1.49,0.77
		c0.27,0,0.49-0.04,0.66-0.09L171.54,98.16z M168.62,96c1.04,0,1.72-0.94,1.72-2.46c0-1.47-0.68-2.36-1.72-2.36
		s-1.71,0.89-1.71,2.36C166.91,95.06,167.58,96,168.62,96z"/>
</g>
<line class="st1" x1="166.2" y1="24.06" x2="166.2" y2="37.15"/>
<g>
	<path class="st0" d="M181.88,148.79h1.81v0.5h-1.81V148.79z"/>
	<path class="st0" d="M191.73,147.56v0.47h-5.76v-0.47h4.3c0.14-0.7,0.15-1.21,0.15-1.63h-3.71v-0.47h4.28v0.4
		c0,0.43,0,0.98-0.14,1.69H191.73z M187.25,151.01h3.92v0.46h-4.5v-1.64h3.76v-0.7h-3.78v-0.46h4.36v1.6h-3.77V151.01z"/>
	<path class="st0" d="M198.25,150.29v0.47h-5.77v-0.47h2.58v-1.2h-1.86v-1.96h3.77v-0.99h-3.78v-0.47h4.35v1.93h-3.76v1.03h3.91
		v0.47h-2.03v1.2H198.25z"/>
	<path class="st0" d="M202.17,148.25h-2.86v-2.75h0.57v0.91h1.71v-0.91h0.57v1.13h1.47v-1.42h0.58v3.3h-0.58v-1.42h-1.47V148.25z
		 M201.6,146.85h-1.71v0.94h1.71V146.85z M204.46,151v0.46h-4.32v-1.57h3.5v-0.62h-3.52v-0.45h4.09v1.51h-3.5V151H204.46z"/>
	<path class="st0" d="M210.66,145.88c0,1.81-0.75,3.41-2.86,4.45l-0.32-0.45c1.71-0.84,2.49-2.05,2.6-3.53h-2.32v-0.47H210.66z
		 M212.71,145.2v6.34h-0.58v-3.33h-1.49v-0.47h1.49v-2.54H212.71z"/>
	<path class="st0" d="M214.77,149.54c0.72-0.01,1.39-0.04,2.2-0.18l0.04,0.48c-0.88,0.15-1.59,0.18-2.38,0.18h-0.42v-2.38h1.8v-1.28
		h-1.82v-0.47h2.39v2.23h-1.81V149.54z M219.39,145.2v6.34h-0.56v-3.36h-0.9v3.04h-0.54v-5.88h0.54v2.37h0.9v-2.51H219.39z"/>
	<path class="st0" d="M226.27,150.25v0.47h-5.76v-0.47h2.56v-1.54h0.58v1.54H226.27z M225.74,148.78c-0.97-0.21-1.97-0.86-2.38-1.77
		c-0.41,0.91-1.4,1.56-2.38,1.77l-0.24-0.48c1.11-0.2,2.31-1.13,2.31-2.19v-0.49h0.61v0.49c0,1.06,1.21,1.99,2.32,2.19
		L225.74,148.78z"/>
	<path class="st0" d="M232.37,148.64c-0.69-0.25-1.23-0.78-1.52-1.43c-0.26,0.74-0.83,1.32-1.57,1.61l-0.3-0.46
		c0.96-0.35,1.58-1.21,1.58-2.18v-0.65h0.58v0.7c0,0.86,0.62,1.65,1.54,1.96L232.37,148.64z M234,150.39c0,0.74-0.8,1.15-2.09,1.15
		c-1.3,0-2.1-0.42-2.1-1.15c0-0.74,0.8-1.16,2.1-1.16C233.2,149.23,234,149.64,234,150.39z M233.42,150.39
		c0-0.45-0.57-0.71-1.51-0.71c-0.94,0-1.52,0.26-1.52,0.71c0,0.44,0.57,0.7,1.52,0.7C232.85,151.09,233.42,150.83,233.42,150.39z
		 M234.87,146.84v0.48h-0.94v1.73h-0.58v-3.84h0.58v1.64H234.87z"/>
	<path class="st0" d="M238.92,148.72c-0.72-0.23-1.27-0.74-1.54-1.37c-0.27,0.72-0.84,1.29-1.6,1.56l-0.3-0.46
		c0.96-0.33,1.59-1.15,1.59-2.07v-0.25h-1.42v-0.47h3.41v0.47h-1.4v0.25c0,0.83,0.6,1.57,1.54,1.88L238.92,148.72z M240.52,150.37
		c0,0.74-0.8,1.17-2.09,1.17c-1.3,0-2.1-0.43-2.1-1.17c0-0.74,0.79-1.17,2.1-1.17C239.72,149.2,240.52,149.63,240.52,150.37z
		 M239.93,150.37c0-0.45-0.57-0.71-1.51-0.71c-0.95,0-1.52,0.26-1.52,0.71c0,0.45,0.57,0.71,1.52,0.71
		C239.36,151.08,239.93,150.82,239.93,150.37z M241.39,146.8v0.49h-0.94v1.74h-0.58v-3.83h0.58v1.6H241.39z"/>
	<path class="st0" d="M181.88,158.7h1.81v0.5h-1.81V158.7z"/>
	<path class="st0" d="M189.21,155.79c0,1.81-0.83,3.44-2.88,4.47l-0.32-0.45c1.62-0.81,2.49-2.03,2.63-3.53h-2.33v-0.48H189.21z
		 M191.88,158.16h-1.02v3.29h-0.58v-6.35h0.58v2.58h1.02V158.16z"/>
	<path class="st0" d="M195.22,158.39h-2.45v-2.73h2.45V158.39z M194.68,156.12h-1.37v1.83h1.37V156.12z M197.87,160.29
		c0,0.73-0.81,1.16-2.12,1.16c-1.3,0-2.12-0.43-2.12-1.16c0-0.74,0.81-1.16,2.12-1.16C197.06,159.13,197.87,159.55,197.87,160.29z
		 M197.3,160.29c0-0.45-0.59-0.71-1.55-0.71c-0.96,0-1.54,0.26-1.54,0.71c0,0.45,0.59,0.71,1.54,0.71
		C196.71,161,197.3,160.74,197.3,160.29z M196.48,158.75h-0.55v-3.52h0.55v1.55h0.81v-1.67h0.56v3.85h-0.56v-1.71h-0.81V158.75z"/>
	<path class="st0" d="M202.45,158.62c-0.71-0.25-1.25-0.79-1.53-1.44c-0.28,0.73-0.86,1.31-1.6,1.58l-0.3-0.45
		c0.94-0.34,1.6-1.18,1.6-2.08v-0.24h-1.42v-0.47h3.39v0.47h-1.39v0.23c0,0.83,0.62,1.62,1.54,1.95L202.45,158.62z M200.1,159.14
		h4.13v2.24h-4.13V159.14z M200.67,160.91h3v-1.31h-3V160.91z M204.23,155.11v3.72h-0.59v-1.64h-1.25v-0.48h1.25v-1.59H204.23z"/>
	<path class="st0" d="M213.24,159.42h-2.58v2.05h-0.58v-2.05h-2.58v-0.47h5.74V159.42z M207.85,157.99
		c1.15-0.16,2.22-0.85,2.22-1.64h-2.02v-0.47h2.03v-0.78h0.58v0.78h2.03v0.47h-2.03c0,0.78,1.08,1.48,2.21,1.64l-0.21,0.47
		c-0.98-0.15-1.89-0.64-2.29-1.32c-0.4,0.69-1.32,1.18-2.3,1.32L207.85,157.99z"/>
	<path class="st0" d="M217.24,155.79c0,1.81-0.83,3.44-2.88,4.47l-0.32-0.45c1.62-0.81,2.49-2.03,2.63-3.53h-2.33v-0.48H217.24z
		 M219.9,158.16h-1.02v3.29h-0.58v-6.35h0.58v2.58h1.02V158.16z"/>
	<path class="st0" d="M226.5,158.94c-1.36,0.24-2.86,0.24-3.97,0.25l-0.06-0.47c0.5,0,1.08,0,1.69-0.02v-0.46
		c-0.74-0.07-1.2-0.41-1.2-0.93c0-0.58,0.59-0.94,1.49-0.94c0.89,0,1.48,0.36,1.48,0.94c0,0.52-0.46,0.86-1.19,0.93v0.44
		c0.58-0.03,1.17-0.07,1.72-0.16L226.5,158.94z M226.27,156.13h-3.65v-0.44h1.54v-0.62h0.58v0.62h1.53V156.13z M223.24,159.69h4.18
		v1.77h-0.58v-1.31h-3.6V159.69z M224.45,157.85c0.56,0,0.93-0.21,0.93-0.54c0-0.33-0.37-0.54-0.93-0.54
		c-0.57,0-0.93,0.21-0.93,0.54C223.51,157.63,223.87,157.85,224.45,157.85z M228.35,157.51h-0.93v1.86h-0.58v-4.26h0.58v1.92h0.93
		V157.51z"/>
	<path class="st0" d="M234.76,160.17v0.47H229v-0.47h2.58v-1.37h-1.9v-3.24h0.57v1.13h3.24v-1.13h0.57v3.24h-1.9v1.37H234.76z
		 M230.26,158.33h3.24v-1.17h-3.24V158.33z"/>
	<path class="st0" d="M181.88,168.61h1.81v0.5h-1.81V168.61z"/>
	<path class="st0" d="M188.19,166.7c0,1.15,0.72,2.31,1.64,2.75l-0.34,0.46c-0.72-0.36-1.3-1.12-1.59-2.01
		c-0.28,0.94-0.86,1.74-1.58,2.12l-0.35-0.46c0.92-0.46,1.64-1.69,1.64-2.86v-1.14h0.58V166.7z M191.2,165.02v6.36h-0.58v-3.73
		h-1.47v-0.47h1.47v-2.15H191.2z"/>
	<path class="st0" d="M193.42,165.55v1.68h1.84v-1.68h0.57v4.28h-2.99v-4.28H193.42z M193.42,169.36h1.84v-1.67h-1.84V169.36z
		 M197.68,165.02v6.36h-0.58v-6.36H197.68z"/>
	<path class="st0" d="M204.75,170.04v0.48h-5.76v-0.48H204.75z M204.21,168.69c-0.96-0.22-1.95-0.9-2.36-1.83
		c-0.4,0.93-1.39,1.61-2.35,1.83l-0.26-0.48c1.11-0.22,2.31-1.18,2.31-2.26v-0.49h0.61v0.49c0,1.08,1.2,2.05,2.32,2.26
		L204.21,168.69z"/>
	<path class="st0" d="M213.24,170v0.47h-5.74V170h2.23v-2.27h0.58V170H213.24z M211.97,166.13h-3.87v-0.47h4.45v0.63
		c0,0.79,0,1.66-0.24,2.94l-0.58-0.06c0.24-1.22,0.24-2.11,0.24-2.87V166.13z"/>
	<path class="st0" d="M219.76,170.08v0.48h-5.77v-0.48h2.58v-1.63h-1.85v-2.93h4.3V166h-3.72v1.99h3.79v0.47h-1.93v1.63H219.76z"/>
	<path class="st0" d="M222.74,169.63c0.57-0.03,1.16-0.07,1.71-0.16l0.04,0.43c-1.36,0.24-2.85,0.25-3.96,0.25l-0.08-0.49
		c0.51,0,1.1,0,1.72-0.02v-0.69c-0.73-0.09-1.21-0.53-1.21-1.16c0-0.72,0.62-1.18,1.5-1.18c0.88,0,1.5,0.46,1.5,1.18
		c0,0.63-0.48,1.07-1.21,1.16V169.63z M224.34,166.25h-3.79v-0.46h1.62v-0.76h0.58v0.76h1.6V166.25z M222.45,168.52
		c0.57,0,0.95-0.28,0.95-0.72s-0.38-0.73-0.95-0.73s-0.95,0.29-0.95,0.73S221.88,168.52,222.45,168.52z M226.39,168.2h-0.99v3.16
		h-0.58v-6.35h0.58v2.7h0.99V168.2z"/>
	<path class="st0" d="M181.88,178.52h1.81v0.5h-1.81V178.52z"/>
	<path class="st0" d="M189.71,178.17c-0.87,0.18-1.62,0.22-2.95,0.22h-0.5v-2.92h2.81v0.47h-2.23v1.97c1.25,0,1.98-0.05,2.8-0.21
		L189.71,178.17z M187.53,180.66h3.65v0.47h-4.23v-2.07h0.58V180.66z M191.84,176.81v0.48h-0.94v2.23h-0.58v-4.59h0.58v1.88H191.84z
		"/>
	<path class="st0" d="M195.66,177.83h-2.92v-2.54h2.92V177.83z M195.1,175.75h-1.78v1.62h1.78V175.75z M193.96,180.72h3.68v0.47
		h-4.25v-1.61h3.44v-0.67h-3.46v-0.46h4.04v1.56h-3.45V180.72z M198.35,176.29v0.48h-0.94v1.39h-0.58v-3.23h0.58v1.36H198.35z"/>
	<path class="st0" d="M202.34,175.61c0,1.83-0.84,3.45-2.95,4.48l-0.31-0.47c1.71-0.81,2.56-2.03,2.68-3.54h-2.39v-0.47H202.34z
		 M204.21,174.93v6.35h-0.58v-6.35H204.21z"/>
	<path class="st0" d="M210.65,178.19v0.59h1.84v1.39h-3.73v0.6h3.92v0.44h-4.49v-1.46h3.72v-0.54h-3.75v-0.43h1.89v-0.59h-2.57
		v-0.45h5.73v0.45H210.65z M207.79,177.02c1.17-0.08,2.15-0.47,2.24-1.1h-1.96v-0.44h2v-0.6h0.58v0.6h1.99v0.44h-1.95
		c0.1,0.63,1.05,1.02,2.24,1.1l-0.18,0.44c-1.06-0.08-2-0.41-2.39-1c-0.39,0.59-1.33,0.91-2.4,1L207.79,177.02z"/>
	<path class="st0" d="M216.25,176.62c0,1.16,0.76,2.33,1.7,2.75l-0.35,0.47c-0.72-0.35-1.33-1.1-1.63-2.01
		c-0.29,0.96-0.9,1.75-1.64,2.13l-0.35-0.47c0.93-0.45,1.71-1.66,1.71-2.87v-1.14h0.57V176.62z M219.2,174.93v6.36h-0.58v-6.36
		H219.2z"/>
	<path class="st0" d="M181.88,198.34h1.81v0.5h-1.81V198.34z"/>
	<path class="st0" d="M191.73,197.11v0.47h-5.76v-0.47h4.3c0.14-0.7,0.15-1.21,0.15-1.63h-3.71v-0.47h4.28v0.4
		c0,0.43,0,0.98-0.14,1.69H191.73z M187.25,200.56h3.92v0.46h-4.5v-1.64h3.76v-0.7h-3.78v-0.46h4.36v1.6h-3.77V200.56z"/>
	<path class="st0" d="M198.25,199.83v0.47h-5.77v-0.47h2.58v-1.2h-1.86v-1.96h3.77v-0.99h-3.78v-0.47h4.35v1.93h-3.76v1.03h3.91
		v0.47h-2.03v1.2H198.25z"/>
	<path class="st0" d="M202.17,197.79h-2.86v-2.75h0.57v0.91h1.71v-0.91h0.57v1.12h1.47v-1.42h0.58v3.3h-0.58v-1.42h-1.47V197.79z
		 M201.6,196.39h-1.71v0.94h1.71V196.39z M204.46,200.55v0.46h-4.32v-1.57h3.5v-0.62h-3.52v-0.45h4.09v1.51h-3.5v0.68H204.46z"/>
	<path class="st0" d="M210.66,195.43c0,1.81-0.75,3.41-2.86,4.45l-0.32-0.45c1.71-0.83,2.49-2.04,2.6-3.53h-2.32v-0.47H210.66z
		 M212.71,194.75v6.34h-0.58v-3.33h-1.49v-0.47h1.49v-2.54H212.71z"/>
	<path class="st0" d="M214.77,199.09c0.72-0.01,1.39-0.04,2.2-0.18l0.04,0.48c-0.88,0.15-1.59,0.18-2.38,0.18h-0.42v-2.38h1.8v-1.28
		h-1.82v-0.47h2.39v2.23h-1.81V199.09z M219.39,194.74v6.34h-0.56v-3.36h-0.9v3.04h-0.54v-5.88h0.54v2.37h0.9v-2.51H219.39z"/>
	<path class="st0" d="M226.27,199.79v0.47h-5.76v-0.47h2.56v-1.54h0.58v1.54H226.27z M225.74,198.33c-0.97-0.21-1.97-0.86-2.38-1.77
		c-0.41,0.91-1.4,1.56-2.38,1.77l-0.24-0.48c1.11-0.2,2.31-1.13,2.31-2.19v-0.49h0.61v0.49c0,1.05,1.21,1.99,2.32,2.19
		L225.74,198.33z"/>
	<path class="st0" d="M234.75,199.05h-2.58v2.05h-0.58v-2.05h-2.58v-0.47h5.74V199.05z M229.37,197.63
		c1.15-0.16,2.22-0.85,2.22-1.64h-2.02v-0.47h2.02v-0.78h0.58v0.78h2.02V196h-2.02c0,0.78,1.08,1.48,2.21,1.64l-0.21,0.47
		c-0.98-0.15-1.89-0.64-2.29-1.32c-0.4,0.69-1.32,1.18-2.3,1.32L229.37,197.63z"/>
	<path class="st0" d="M238.76,195.42c0,1.8-0.83,3.44-2.88,4.47l-0.32-0.45c1.62-0.81,2.49-2.03,2.63-3.53h-2.33v-0.48H238.76z
		 M241.42,197.8h-1.02v3.29h-0.58v-6.35h0.58v2.58h1.02V197.8z"/>
	<path class="st0" d="M247.37,198.18c-0.69-0.25-1.23-0.78-1.51-1.43c-0.26,0.74-0.83,1.32-1.57,1.61l-0.3-0.46
		c0.96-0.35,1.58-1.21,1.58-2.18v-0.65h0.58v0.7c0,0.86,0.62,1.65,1.54,1.96L247.37,198.18z M249.01,199.93
		c0,0.74-0.8,1.15-2.09,1.15c-1.3,0-2.1-0.42-2.1-1.15c0-0.74,0.8-1.16,2.1-1.16C248.21,198.77,249.01,199.19,249.01,199.93z
		 M248.43,199.93c0-0.45-0.57-0.71-1.51-0.71c-0.94,0-1.51,0.26-1.51,0.71c0,0.44,0.57,0.7,1.51,0.7
		C247.85,200.63,248.43,200.37,248.43,199.93z M249.88,196.39v0.48h-0.94v1.73h-0.58v-3.85h0.58v1.64H249.88z"/>
	<path class="st0" d="M253.93,198.27c-0.72-0.23-1.27-0.74-1.54-1.37c-0.27,0.72-0.84,1.29-1.6,1.56l-0.3-0.46
		c0.96-0.33,1.59-1.15,1.59-2.07v-0.25h-1.42v-0.47h3.41v0.47h-1.4v0.25c0,0.83,0.6,1.57,1.54,1.88L253.93,198.27z M255.52,199.91
		c0,0.74-0.8,1.18-2.09,1.18c-1.3,0-2.1-0.43-2.1-1.18c0-0.74,0.79-1.17,2.1-1.17C254.72,198.74,255.52,199.18,255.52,199.91z
		 M254.94,199.91c0-0.45-0.57-0.71-1.51-0.71c-0.95,0-1.51,0.26-1.51,0.71c0,0.45,0.57,0.71,1.51,0.71
		C254.37,200.63,254.94,200.36,254.94,199.91z M256.39,196.35v0.49h-0.94v1.74h-0.58v-3.83h0.58v1.6H256.39z"/>
	<path class="st0" d="M181.88,218.16h1.81v0.5h-1.81V218.16z"/>
	<path class="st0" d="M186.01,217.77c0-1.66,0.91-2.68,2.22-2.68s2.22,1.01,2.22,2.68s-0.91,2.71-2.22,2.71
		S186.01,219.44,186.01,217.77z M189.77,217.77c0-1.3-0.62-2.1-1.54-2.1c-0.93,0-1.54,0.8-1.54,2.1c0,1.3,0.61,2.13,1.54,2.13
		C189.15,219.91,189.77,219.07,189.77,217.77z"/>
	<path class="st0" d="M191.16,220.01c1.63-1.42,2.38-2.46,2.38-3.35c0-0.59-0.31-1.03-0.96-1.03c-0.42,0-0.79,0.26-1.08,0.6
		l-0.38-0.37c0.42-0.46,0.87-0.76,1.53-0.76c0.93,0,1.51,0.61,1.51,1.54c0,1.03-0.81,2.09-2.03,3.24c0.27-0.02,0.59-0.05,0.85-0.05
		h1.44v0.56h-3.26V220.01z"/>
	<path class="st0" d="M195.19,217.77c0-1.66,0.91-2.68,2.22-2.68s2.22,1.01,2.22,2.68s-0.91,2.71-2.22,2.71
		S195.19,219.44,195.19,217.77z M198.95,217.77c0-1.3-0.62-2.1-1.54-2.1c-0.93,0-1.54,0.8-1.54,2.1c0,1.3,0.61,2.13,1.54,2.13
		C198.33,219.91,198.95,219.07,198.95,217.77z"/>
	<path class="st0" d="M205.07,215.93c-0.4,1-1.37,1.68-2.77,2.01l-0.21-0.47c1.55-0.36,2.44-1.12,2.54-2.12h-2.21v-0.47h2.84
		c0,0.21-0.02,0.41-0.06,0.61h1.44v-0.92h0.59v3.24h-0.59v-0.66h-1.66v-0.45h1.66v-0.76H205.07z M207.43,220.39v0.46h-4.29v-1.63
		h3.5v-0.65h-3.51v-0.47h4.09v1.56h-3.5v0.74H207.43z"/>
	<path class="st0" d="M210.36,216.35c0,1.1,0.47,2.21,1.35,2.7l-0.35,0.43c-0.62-0.37-1.05-1.05-1.27-1.86
		c-0.22,0.87-0.68,1.61-1.31,2.01l-0.35-0.43c0.88-0.53,1.38-1.68,1.38-2.85v-0.57h-1.2v-0.47h2.9v0.47h-1.13V216.35z M212.06,214.7
		h0.55v5.88h-0.55v-3.26h-1.05v-0.47h1.05V214.7z M213.9,214.55v6.35h-0.56v-6.35H213.9z"/>
	<path class="st0" d="M219.25,216.25c0,1.16,0.76,2.33,1.7,2.75l-0.35,0.47c-0.72-0.35-1.33-1.1-1.63-2.01
		c-0.29,0.96-0.9,1.75-1.64,2.13l-0.35-0.47c0.93-0.45,1.71-1.66,1.71-2.87v-1.14h0.57V216.25z M222.19,214.56v6.37h-0.58v-6.37
		H222.19z"/>
	<path class="st0" d="M229.26,219.58v0.48h-5.76v-0.48H229.26z M228.72,218.24c-0.96-0.22-1.95-0.9-2.36-1.83
		c-0.4,0.93-1.39,1.61-2.35,1.83l-0.26-0.48c1.11-0.22,2.31-1.17,2.31-2.26v-0.49h0.61v0.49c0,1.08,1.2,2.05,2.31,2.26
		L228.72,218.24z"/>
	<path class="st0" d="M233.05,217.83c-0.72,0.14-1.32,0.17-2.34,0.17h-0.4v-3.03h2.4v0.47h-1.84v0.79h1.59v0.45h-1.59v0.86
		c0.9,0,1.47-0.04,2.13-0.17L233.05,217.83z M231.21,218.69h4.17v2.14h-4.17V218.69z M231.77,220.36h3.04v-1.21h-3.04V220.36z
		 M233.59,216.63h-0.84v-0.47h0.84v-1.49h0.55v3.65h-0.55V216.63z M235.38,214.56v3.82h-0.56v-3.82H235.38z"/>
	<path class="st0" d="M244.27,219.62v0.48h-5.77v-0.48h2.58v-1.32c-1.18-0.09-2.02-0.71-2.02-1.65c0-1.01,0.97-1.66,2.32-1.66
		c1.34,0,2.3,0.65,2.3,1.66c0,0.94-0.83,1.56-2.01,1.65v1.32H244.27z M241.38,217.85c1.01,0,1.75-0.47,1.75-1.2
		c0-0.73-0.74-1.2-1.75-1.2s-1.76,0.47-1.76,1.2C239.63,217.37,240.37,217.85,241.38,217.85z"/>
	<path class="st0" d="M250.76,217.95v0.47h-5.74v-0.47H250.76z M246.52,215.35h-0.96v-0.47h4.66v0.47h-0.96v1.45h0.93v0.47h-4.62
		v-0.47h0.94V215.35z M246.34,220.3h3.79v0.47h-4.37v-1.76h0.58V220.3z M248.67,215.35h-1.58v1.45h1.58V215.35z"/>
	<path class="st0" d="M181.88,237.98h1.81v0.5h-1.81V237.98z"/>
	<path class="st0" d="M191.73,239.43v0.48h-5.76v-0.48h2.58v-1.54h-1.9v-2.98h4.38v2.98h-1.89v1.54H191.73z M187.21,237.43h3.25
		v-2.06h-3.25V237.43z"/>
	<path class="st0" d="M195.12,234.92h0.57v4.28h-2.95v-4.28h0.57v1.68h1.81V234.92z M195.12,237.06h-1.81v1.67h1.81V237.06z
		 M198.42,237.37h-1.05v3.36h-0.58v-6.34h0.58v2.49h1.05V237.37z"/>
	<path class="st0" d="M200.78,237.42c-0.95,0-1.64-0.57-1.64-1.4c0-0.84,0.69-1.42,1.64-1.42c0.95,0,1.64,0.57,1.64,1.42
		C202.42,236.86,201.73,237.42,200.78,237.42z M200.78,236.96c0.62,0,1.08-0.39,1.08-0.94c0-0.55-0.45-0.94-1.08-0.94
		c-0.62,0-1.08,0.39-1.08,0.94C199.7,236.57,200.16,236.96,200.78,236.96z M204.42,240.18v0.46h-4.31v-1.59h3.53v-0.64h-3.54v-0.46
		h4.11v1.54h-3.53v0.7H204.42z M204.21,237.64h-0.58v-3.26h0.58V237.64z"/>
	<path class="st0" d="M213.25,239.44v0.47h-5.77v-0.47h1.57V238h0.57v1.44h1.48V238h0.58v1.44H213.25z M212.75,237.87
		c-0.98-0.2-1.99-0.83-2.41-1.71c-0.41,0.88-1.42,1.52-2.41,1.71l-0.24-0.48c1.12-0.18,2.34-1.08,2.34-2.11v-0.49h0.61v0.49
		c0,1.03,1.22,1.93,2.34,2.11L212.75,237.87z"/>
	<path class="st0" d="M218.04,237.58c-1.29,0.22-2.79,0.24-3.87,0.24l-0.06-0.48c0.24,0,0.51,0,0.79-0.01v-1.93h-0.62v-0.47h3.41
		v0.47h-0.62v1.86c0.32-0.03,0.63-0.06,0.93-0.1L218.04,237.58z M219.25,239.57c0,0.73-0.81,1.15-2.13,1.15
		c-1.32,0-2.13-0.42-2.13-1.15c0-0.74,0.81-1.16,2.13-1.16C218.43,238.41,219.25,238.83,219.25,239.57z M215.47,237.32
		c0.33-0.01,0.69-0.02,1.03-0.04v-1.88h-1.03V237.32z M218.67,239.57c0-0.45-0.58-0.71-1.55-0.71c-0.97,0-1.55,0.26-1.55,0.71
		c0,0.44,0.58,0.7,1.55,0.7C218.08,240.27,218.67,240.01,218.67,239.57z M219.21,238.27h-0.58v-3.89h0.58V238.27z"/>
	<path class="st0" d="M224.75,236.07c0,1.16,0.76,2.33,1.7,2.75l-0.35,0.47c-0.72-0.35-1.33-1.1-1.63-2.01
		c-0.29,0.96-0.9,1.75-1.64,2.13l-0.35-0.47c0.93-0.45,1.71-1.66,1.71-2.87v-1.14h0.57V236.07z M227.69,234.38v6.37h-0.58v-6.37
		H227.69z"/>
	<path class="st0" d="M234.76,239.4v0.48H229v-0.48H234.76z M234.22,238.05c-0.96-0.22-1.95-0.9-2.36-1.83
		c-0.4,0.93-1.39,1.61-2.35,1.83l-0.26-0.48c1.11-0.22,2.31-1.17,2.31-2.26v-0.49h0.61v0.49c0,1.08,1.2,2.05,2.31,2.26
		L234.22,238.05z"/>
	<path class="st0" d="M238.55,237.65c-0.72,0.14-1.32,0.17-2.34,0.17h-0.4v-3.03h2.4v0.47h-1.84v0.79h1.59v0.45h-1.59v0.86
		c0.9,0,1.47-0.04,2.13-0.17L238.55,237.65z M236.71,238.51h4.17v2.14h-4.17V238.51z M237.27,240.18h3.04v-1.21h-3.04V240.18z
		 M239.09,236.45h-0.84v-0.47h0.84v-1.49h0.55v3.65h-0.55V236.45z M240.88,234.38v3.82h-0.56v-3.82H240.88z"/>
	<path class="st0" d="M249.77,239.43v0.48H244v-0.48h2.58v-1.32c-1.18-0.09-2.02-0.71-2.02-1.65c0-1.01,0.97-1.66,2.32-1.66
		c1.34,0,2.3,0.65,2.3,1.66c0,0.94-0.83,1.56-2.01,1.65v1.32H249.77z M246.88,237.66c1.01,0,1.75-0.47,1.75-1.2
		c0-0.73-0.74-1.2-1.75-1.2s-1.76,0.47-1.76,1.2C245.13,237.19,245.87,237.66,246.88,237.66z"/>
	<path class="st0" d="M256.26,237.77v0.47h-5.74v-0.47H256.26z M252.02,235.17h-0.96v-0.47h4.66v0.47h-0.96v1.45h0.93v0.47h-4.62
		v-0.47h0.94V235.17z M251.84,240.11h3.79v0.47h-4.37v-1.76h0.58V240.11z M254.17,235.17h-1.58v1.45h1.58V235.17z"/>
</g>
<g>
	<path class="st0" d="M155.34,121.98c2.15-1.9,3.26-3.32,3.26-4.52c0-0.79-0.43-1.34-1.24-1.34c-0.58,0-1.05,0.37-1.44,0.81
		l-0.64-0.63c0.62-0.67,1.27-1.09,2.22-1.09c1.34,0,2.2,0.87,2.2,2.19c0,1.41-1.12,2.86-2.66,4.34c0.38-0.04,0.83-0.07,1.19-0.07
		h1.82v0.97h-4.7V121.98z"/>
	<path class="st0" d="M161.01,118.97c0-2.53,0.92-3.75,2.36-3.75c1.43,0,2.36,1.24,2.36,3.75c0,2.54-0.93,3.8-2.36,3.8
		C161.93,122.77,161.01,121.51,161.01,118.97z M164.64,118.97c0-2.09-0.52-2.85-1.27-2.85c-0.74,0-1.27,0.76-1.27,2.85
		c0,2.11,0.53,2.9,1.27,2.9C164.11,121.87,164.64,121.08,164.64,118.97z"/>
	<path class="st0" d="M166.63,121.98c2.15-1.9,3.26-3.32,3.26-4.52c0-0.79-0.43-1.34-1.24-1.34c-0.57,0-1.05,0.37-1.44,0.81
		l-0.64-0.63c0.62-0.67,1.27-1.09,2.22-1.09c1.34,0,2.2,0.87,2.2,2.19c0,1.41-1.12,2.86-2.66,4.34c0.38-0.04,0.83-0.07,1.19-0.07
		h1.82v0.97h-4.7V121.98z"/>
	<path class="st0" d="M172.28,121.98c2.15-1.9,3.26-3.32,3.26-4.52c0-0.79-0.43-1.34-1.24-1.34c-0.58,0-1.05,0.37-1.44,0.81
		l-0.64-0.63c0.62-0.67,1.27-1.09,2.22-1.09c1.34,0,2.2,0.87,2.2,2.19c0,1.41-1.12,2.86-2.66,4.34c0.38-0.04,0.83-0.07,1.19-0.07
		h1.82v0.97h-4.7V121.98z"/>
</g>
<g>
	<path class="st0" d="M160.95,199.49c1.84-1.63,2.8-2.85,2.8-3.88c0-0.68-0.37-1.15-1.06-1.15c-0.49,0-0.9,0.31-1.23,0.7l-0.55-0.54
		c0.54-0.58,1.09-0.93,1.9-0.93c1.15,0,1.89,0.75,1.89,1.88c0,1.21-0.96,2.46-2.29,3.72c0.32-0.03,0.71-0.06,1.02-0.06h1.56v0.83
		h-4.04V199.49z"/>
	<path class="st0" d="M171.54,201.52c-0.2,0.09-0.55,0.16-0.96,0.16c-1.22,0-2.05-0.66-2.43-1.55c-1.35-0.23-2.25-1.42-2.25-3.23
		c0-2.01,1.11-3.22,2.72-3.22s2.73,1.21,2.73,3.22c0,1.76-0.86,2.93-2.14,3.2c0.28,0.53,0.86,0.77,1.49,0.77
		c0.27,0,0.49-0.04,0.66-0.09L171.54,201.52z M168.62,199.36c1.04,0,1.72-0.94,1.72-2.46c0-1.47-0.68-2.36-1.72-2.36
		c-1.04,0-1.71,0.89-1.71,2.36C166.91,198.42,167.58,199.36,168.62,199.36z"/>
</g>
<g>
	<path class="st0" d="M161.3,150.22h1.37v-4.35h-1.12v-0.62c0.59-0.11,1-0.25,1.36-0.48h0.74v5.45h1.22v0.81h-3.57V150.22z"/>
	<path class="st0" d="M171.54,152.49c-0.2,0.09-0.55,0.16-0.96,0.16c-1.22,0-2.05-0.65-2.43-1.55c-1.35-0.23-2.25-1.42-2.25-3.23
		c0-2.01,1.11-3.22,2.72-3.22s2.73,1.21,2.73,3.22c0,1.76-0.86,2.93-2.14,3.2c0.28,0.53,0.86,0.77,1.49,0.77
		c0.27,0,0.49-0.04,0.66-0.09L171.54,152.49z M168.62,150.33c1.04,0,1.72-0.94,1.72-2.46c0-1.47-0.68-2.36-1.72-2.36
		c-1.04,0-1.71,0.89-1.71,2.36C166.91,149.38,167.58,150.33,168.62,150.33z"/>
</g>
<g>
	<path class="st0" d="M160.81,218.6l0.48-0.63c0.37,0.38,0.83,0.69,1.48,0.69c0.71,0,1.19-0.39,1.19-1.04c0-0.7-0.44-1.15-1.85-1.15
		v-0.72c1.23,0,1.64-0.47,1.64-1.1c0-0.55-0.37-0.9-0.96-0.91c-0.49,0.01-0.89,0.25-1.25,0.59l-0.51-0.61
		c0.49-0.44,1.07-0.76,1.79-0.76c1.12,0,1.91,0.58,1.91,1.61c0,0.72-0.42,1.22-1.08,1.47v0.04c0.72,0.18,1.29,0.72,1.29,1.56
		c0,1.13-0.94,1.79-2.09,1.79C161.87,219.46,161.23,219.07,160.81,218.6z"/>
	<path class="st0" d="M171.54,220.81c-0.2,0.09-0.55,0.16-0.96,0.16c-1.22,0-2.05-0.66-2.43-1.55c-1.35-0.23-2.25-1.42-2.25-3.23
		c0-2.01,1.11-3.22,2.72-3.22s2.73,1.21,2.73,3.22c0,1.76-0.86,2.93-2.14,3.2c0.28,0.53,0.86,0.77,1.49,0.77
		c0.27,0,0.49-0.04,0.66-0.09L171.54,220.81z M168.62,218.65c1.04,0,1.72-0.94,1.72-2.46c0-1.47-0.68-2.36-1.72-2.36
		c-1.04,0-1.71,0.89-1.71,2.36C166.91,217.71,167.58,218.65,168.62,218.65z"/>
</g>
<g>
	<path class="st0" d="M165.16,238.77h-0.8v1.68h-0.92v-1.68h-2.7v-0.66l2.49-3.92h1.13v3.82h0.8V238.77z M163.45,238.01v-1.64
		c0-0.34,0.03-0.87,0.05-1.21h-0.03c-0.15,0.31-0.32,0.64-0.5,0.96l-1.23,1.89H163.45z"/>
	<path class="st0" d="M171.54,241.92c-0.2,0.09-0.55,0.16-0.96,0.16c-1.22,0-2.05-0.66-2.43-1.55c-1.35-0.23-2.25-1.42-2.25-3.23
		c0-2.01,1.11-3.22,2.72-3.22s2.73,1.21,2.73,3.22c0,1.76-0.86,2.93-2.14,3.2c0.28,0.53,0.86,0.77,1.49,0.77
		c0.27,0,0.49-0.04,0.66-0.09L171.54,241.92z M168.62,239.76c1.04,0,1.72-0.94,1.72-2.46c0-1.47-0.68-2.36-1.72-2.36
		c-1.04,0-1.71,0.89-1.71,2.36C166.91,238.81,167.58,239.76,168.62,239.76z"/>
</g>
<line class="st1" x1="166.2" y1="127.27" x2="166.2" y2="140.36"/>
<g>
	<path class="st0" d="M181.88,293.11h1.81v0.5h-1.81V293.11z"/>
	<path class="st0" d="M191.71,292.35v0.46h-5.75v-0.46H191.71z M187.46,290.16h-0.96v-0.45h4.66v0.45h-0.96v1.21h0.93v0.45h-4.62
		v-0.45h0.94V290.16z M187.25,295.35h3.92v0.44h-4.49v-1.45h3.72v-0.54h-3.75v-0.43h4.32v1.4h-3.73V295.35z M189.62,290.16h-1.58
		v1.21h1.58V290.16z"/>
	<path class="st0" d="M195.58,293c-0.81,0.16-1.47,0.2-2.39,0.2h-0.42v-1.85h1.81v-0.86h-1.83v-0.47h2.39v1.77h-1.81v0.94
		c0.82-0.01,1.45-0.04,2.18-0.19L195.58,293z M196.02,293.71c0,0.82,1.03,1.5,2.15,1.68l-0.23,0.45c-0.93-0.16-1.83-0.65-2.21-1.35
		c-0.39,0.7-1.27,1.19-2.21,1.35l-0.23-0.45c1.11-0.18,2.15-0.86,2.15-1.68v-0.16h0.59V293.71z M196.43,293.29h-0.55v-3.65h0.55
		v1.54h0.85v-1.66h0.56v4.32h-0.56v-2.19h-0.85V293.29z"/>
	<path class="st0" d="M204.74,292.71v0.47h-5.74v-0.47h2.58v-0.73h-2.02v-0.47h0.93v-1.33h-0.96v-0.47h4.66v0.47h-0.96v1.33h0.93
		v0.47h-2.01v0.73H204.74z M199.7,293.78h4.33v2h-4.33V293.78z M200.27,295.31h3.2v-1.07h-3.2V295.31z M201.07,291.52h1.58v-1.33
		h-1.58V291.52z"/>
	<path class="st0" d="M213.24,294.5v0.47h-5.74v-0.47h2.23v-2.27h0.58v2.27H213.24z M211.97,290.63h-3.87v-0.47h4.45v0.63
		c0,0.79,0,1.66-0.24,2.94l-0.58-0.06c0.24-1.22,0.24-2.11,0.24-2.88V290.63z"/>
	<path class="st0" d="M219.76,294.58v0.48h-5.77v-0.48h2.58v-1.63h-1.85v-2.93h4.3v0.47h-3.72v1.99h3.79v0.47h-1.93v1.63H219.76z"/>
	<path class="st0" d="M222.74,294.13c0.57-0.03,1.16-0.07,1.71-0.16l0.04,0.43c-1.36,0.24-2.85,0.26-3.96,0.26l-0.08-0.49
		c0.51,0,1.1,0,1.72-0.02v-0.69c-0.73-0.09-1.21-0.53-1.21-1.16c0-0.71,0.62-1.18,1.5-1.18c0.88,0,1.5,0.46,1.5,1.18
		c0,0.63-0.48,1.07-1.21,1.16V294.13z M224.34,290.75h-3.79v-0.46h1.62v-0.77h0.58v0.77h1.6V290.75z M222.45,293.02
		c0.57,0,0.95-0.28,0.95-0.72s-0.38-0.73-0.95-0.73s-0.95,0.29-0.95,0.73S221.88,293.02,222.45,293.02z M226.39,292.7h-0.99v3.16
		h-0.58v-6.35h0.58v2.7h0.99V292.7z"/>
	<path class="st0" d="M181.88,303.02h1.81v0.5h-1.81V303.02z"/>
	<path class="st0" d="M189.21,300.1c0,1.8-0.83,3.44-2.88,4.47l-0.32-0.45c1.62-0.81,2.49-2.03,2.63-3.53h-2.33v-0.48H189.21z
		 M191.88,302.48h-1.02v3.29h-0.58v-6.35h0.58V302h1.02V302.48z"/>
	<path class="st0" d="M195.22,302.71h-2.45v-2.73h2.45V302.71z M194.68,300.43h-1.37v1.83h1.37V300.43z M197.87,304.6
		c0,0.73-0.81,1.16-2.12,1.16c-1.3,0-2.12-0.43-2.12-1.16c0-0.74,0.81-1.16,2.12-1.16C197.06,303.44,197.87,303.87,197.87,304.6z
		 M197.3,304.6c0-0.45-0.59-0.71-1.55-0.71c-0.96,0-1.54,0.26-1.54,0.71c0,0.45,0.59,0.71,1.54,0.71
		C196.71,305.31,197.3,305.05,197.3,304.6z M196.48,303.07h-0.55v-3.52h0.55v1.55h0.81v-1.67h0.56v3.85h-0.56v-1.71h-0.81V303.07z"
		/>
	<path class="st0" d="M202.45,302.93c-0.71-0.26-1.25-0.79-1.53-1.44c-0.28,0.73-0.86,1.31-1.6,1.58l-0.3-0.45
		c0.94-0.34,1.6-1.18,1.6-2.08v-0.24h-1.42v-0.47h3.39v0.47h-1.39v0.23c0,0.83,0.62,1.62,1.54,1.95L202.45,302.93z M200.1,303.45
		h4.13v2.24h-4.13V303.45z M200.67,305.22h3v-1.31h-3V305.22z M204.23,299.42v3.72h-0.59v-1.64h-1.25v-0.48h1.25v-1.59H204.23z"/>
	<path class="st0" d="M213.24,303.74h-2.58v2.04h-0.58v-2.04h-2.58v-0.47h5.74V303.74z M207.85,302.31
		c1.15-0.16,2.22-0.85,2.22-1.63h-2.02v-0.47h2.03v-0.78h0.58v0.78h2.03v0.47h-2.03c0,0.78,1.08,1.48,2.21,1.63l-0.21,0.47
		c-0.98-0.15-1.89-0.64-2.29-1.32c-0.4,0.69-1.32,1.18-2.3,1.32L207.85,302.31z"/>
	<path class="st0" d="M217.24,300.1c0,1.8-0.83,3.44-2.88,4.47l-0.32-0.45c1.62-0.81,2.49-2.03,2.63-3.53h-2.33v-0.48H217.24z
		 M219.9,302.48h-1.02v3.29h-0.58v-6.35h0.58V302h1.02V302.48z"/>
	<path class="st0" d="M226.5,303.25c-1.36,0.24-2.86,0.24-3.97,0.25l-0.06-0.47c0.5,0,1.08,0,1.69-0.02v-0.46
		c-0.74-0.07-1.2-0.41-1.2-0.93c0-0.58,0.59-0.94,1.49-0.94c0.89,0,1.48,0.36,1.48,0.94c0,0.52-0.46,0.86-1.19,0.93v0.44
		c0.58-0.03,1.17-0.07,1.72-0.16L226.5,303.25z M226.27,300.44h-3.65V300h1.54v-0.62h0.58V300h1.53V300.44z M223.24,304h4.18v1.77
		h-0.58v-1.31h-3.6V304z M224.45,302.16c0.56,0,0.93-0.21,0.93-0.54c0-0.33-0.37-0.54-0.93-0.54c-0.57,0-0.93,0.21-0.93,0.54
		C223.51,301.95,223.87,302.16,224.45,302.16z M228.35,301.83h-0.93v1.86h-0.58v-4.25h0.58v1.92h0.93V301.83z"/>
	<path class="st0" d="M234.76,304.49v0.47H229v-0.47h2.58v-1.37h-1.9v-3.24h0.57v1.13h3.24v-1.13h0.57v3.24h-1.9v1.37H234.76z
		 M230.26,302.65h3.24v-1.17h-3.24V302.65z"/>
	<path class="st0" d="M181.88,322.84h1.81v0.5h-1.81V322.84z"/>
	<path class="st0" d="M191.73,321.61v0.47h-5.76v-0.47h4.3c0.14-0.7,0.15-1.21,0.15-1.63h-3.71v-0.47h4.28v0.4
		c0,0.43,0,0.98-0.14,1.69H191.73z M187.25,325.05h3.92v0.46h-4.5v-1.64h3.76v-0.7h-3.78v-0.46h4.36v1.6h-3.77V325.05z"/>
	<path class="st0" d="M198.25,324.33v0.47h-5.77v-0.47h2.58v-1.2h-1.86v-1.96h3.77v-0.99h-3.78v-0.47h4.35v1.93h-3.76v1.03h3.91
		v0.47h-2.03v1.2H198.25z"/>
	<path class="st0" d="M202.17,322.29h-2.86v-2.75h0.57v0.91h1.71v-0.91h0.57v1.13h1.47v-1.42h0.58v3.3h-0.58v-1.42h-1.47V322.29z
		 M201.6,320.89h-1.71v0.94h1.71V320.89z M204.46,325.05v0.46h-4.32v-1.57h3.5v-0.62h-3.52v-0.45h4.09v1.51h-3.5v0.68H204.46z"/>
	<path class="st0" d="M209.74,320.93c0,1.16,0.76,2.33,1.7,2.75l-0.35,0.47c-0.72-0.36-1.33-1.11-1.64-2.01
		c-0.29,0.96-0.9,1.75-1.64,2.13l-0.35-0.47c0.93-0.45,1.71-1.66,1.71-2.87v-1.14h0.57V320.93z M212.69,319.24v6.37h-0.58v-6.37
		H212.69z"/>
	<path class="st0" d="M217.41,322.77c-0.72-0.23-1.27-0.74-1.54-1.37c-0.27,0.72-0.84,1.29-1.6,1.56l-0.3-0.46
		c0.96-0.33,1.59-1.15,1.59-2.07v-0.25h-1.42v-0.47h3.41v0.47h-1.4v0.25c0,0.83,0.6,1.57,1.54,1.88L217.41,322.77z M219,324.41
		c0,0.74-0.8,1.18-2.09,1.18c-1.3,0-2.1-0.43-2.1-1.18c0-0.74,0.79-1.17,2.1-1.17C218.2,323.24,219,323.67,219,324.41z
		 M218.42,324.41c0-0.45-0.57-0.71-1.51-0.71c-0.95,0-1.52,0.26-1.52,0.71c0,0.45,0.57,0.71,1.52,0.71
		C217.84,325.12,218.42,324.86,218.42,324.41z M219.87,320.85v0.49h-0.94v1.74h-0.58v-3.83h0.58v1.6H219.87z"/>
	<path class="st0" d="M226.5,323.07c-1.36,0.24-2.86,0.24-3.97,0.25l-0.06-0.47c0.5,0,1.08,0,1.69-0.02v-0.46
		c-0.74-0.07-1.2-0.41-1.2-0.93c0-0.58,0.59-0.94,1.49-0.94c0.89,0,1.48,0.36,1.48,0.94c0,0.52-0.46,0.86-1.19,0.93v0.44
		c0.58-0.03,1.17-0.07,1.72-0.16L226.5,323.07z M226.27,320.26h-3.65v-0.44h1.54v-0.62h0.58v0.62h1.53V320.26z M223.24,323.82h4.18
		v1.77h-0.58v-1.31h-3.6V323.82z M224.45,321.98c0.56,0,0.93-0.21,0.93-0.54c0-0.33-0.37-0.54-0.93-0.54
		c-0.57,0-0.93,0.21-0.93,0.54C223.51,321.77,223.87,321.98,224.45,321.98z M228.35,321.65h-0.93v1.86h-0.58v-4.25h0.58v1.92h0.93
		V321.65z"/>
	<path class="st0" d="M232.41,322.77c-0.72-0.23-1.27-0.74-1.54-1.37c-0.27,0.72-0.84,1.29-1.6,1.56l-0.3-0.46
		c0.96-0.33,1.59-1.15,1.59-2.07v-0.25h-1.42v-0.47h3.41v0.47h-1.4v0.25c0,0.83,0.6,1.57,1.54,1.88L232.41,322.77z M234,324.41
		c0,0.74-0.8,1.18-2.09,1.18c-1.3,0-2.1-0.43-2.1-1.18c0-0.74,0.79-1.17,2.1-1.17C233.2,323.24,234,323.67,234,324.41z
		 M233.42,324.41c0-0.45-0.57-0.71-1.51-0.71c-0.95,0-1.52,0.26-1.52,0.71c0,0.45,0.57,0.71,1.52,0.71
		C232.85,325.12,233.42,324.86,233.42,324.41z M234.87,320.85v0.49h-0.94v1.74h-0.58v-3.83h0.58v1.6H234.87z"/>
</g>
<g>
	<path class="st0" d="M155.34,266.3c2.15-1.9,3.26-3.32,3.26-4.52c0-0.79-0.43-1.34-1.24-1.34c-0.58,0-1.05,0.37-1.44,0.81
		l-0.64-0.63c0.62-0.67,1.27-1.09,2.22-1.09c1.34,0,2.2,0.87,2.2,2.19c0,1.41-1.12,2.86-2.66,4.34c0.38-0.04,0.83-0.07,1.19-0.07
		h1.82v0.97h-4.7V266.3z"/>
	<path class="st0" d="M161.01,263.29c0-2.53,0.92-3.75,2.36-3.75c1.43,0,2.36,1.24,2.36,3.75c0,2.54-0.93,3.8-2.36,3.8
		C161.93,267.09,161.01,265.82,161.01,263.29z M164.64,263.29c0-2.09-0.52-2.85-1.27-2.85c-0.74,0-1.27,0.76-1.27,2.85
		c0,2.11,0.53,2.9,1.27,2.9C164.11,266.19,164.64,265.4,164.64,263.29z"/>
	<path class="st0" d="M166.63,266.3c2.15-1.9,3.26-3.32,3.26-4.52c0-0.79-0.43-1.34-1.24-1.34c-0.57,0-1.05,0.37-1.44,0.81
		l-0.64-0.63c0.62-0.67,1.27-1.09,2.22-1.09c1.34,0,2.2,0.87,2.2,2.19c0,1.41-1.12,2.86-2.66,4.34c0.38-0.04,0.83-0.07,1.19-0.07
		h1.82v0.97h-4.7V266.3z"/>
	<path class="st0" d="M172.12,266.09l0.55-0.73c0.43,0.44,0.97,0.8,1.72,0.8c0.82,0,1.39-0.46,1.39-1.21c0-0.81-0.52-1.34-2.16-1.34
		v-0.84c1.44,0,1.91-0.54,1.91-1.28c0-0.64-0.43-1.05-1.12-1.06c-0.56,0.01-1.04,0.29-1.46,0.69l-0.59-0.71
		c0.57-0.51,1.25-0.88,2.09-0.88c1.31,0,2.23,0.67,2.23,1.88c0,0.84-0.49,1.43-1.26,1.71v0.05c0.84,0.21,1.5,0.84,1.5,1.82
		c0,1.32-1.1,2.09-2.44,2.09C173.35,267.09,172.61,266.63,172.12,266.09z"/>
</g>
<g>
	<path class="st0" d="M160.95,323.61c1.84-1.63,2.8-2.85,2.8-3.88c0-0.68-0.37-1.15-1.06-1.15c-0.49,0-0.9,0.31-1.23,0.7l-0.55-0.54
		c0.54-0.58,1.09-0.93,1.9-0.93c1.15,0,1.89,0.75,1.89,1.88c0,1.21-0.96,2.46-2.29,3.72c0.32-0.03,0.71-0.06,1.02-0.06h1.56v0.83
		h-4.04V323.61z"/>
	<path class="st0" d="M171.54,325.64c-0.2,0.09-0.55,0.16-0.96,0.16c-1.22,0-2.05-0.65-2.43-1.55c-1.35-0.23-2.25-1.42-2.25-3.23
		c0-2.01,1.11-3.22,2.72-3.22s2.73,1.21,2.73,3.22c0,1.76-0.86,2.93-2.14,3.2c0.28,0.53,0.86,0.77,1.49,0.77
		c0.27,0,0.49-0.04,0.66-0.09L171.54,325.64z M168.62,323.48c1.04,0,1.72-0.94,1.72-2.46c0-1.47-0.68-2.36-1.72-2.36
		c-1.04,0-1.71,0.89-1.71,2.36C166.91,322.53,167.58,323.48,168.62,323.48z"/>
</g>
<g>
	<path class="st0" d="M161.3,294.53h1.37v-4.35h-1.12v-0.62c0.59-0.11,1-0.26,1.36-0.48h0.74v5.45h1.22v0.81h-3.57V294.53z"/>
	<path class="st0" d="M171.54,296.8c-0.2,0.09-0.55,0.16-0.96,0.16c-1.22,0-2.05-0.65-2.43-1.55c-1.35-0.23-2.25-1.42-2.25-3.23
		c0-2.01,1.11-3.22,2.72-3.22s2.73,1.21,2.73,3.22c0,1.76-0.86,2.93-2.14,3.21c0.28,0.53,0.86,0.77,1.49,0.77
		c0.27,0,0.49-0.04,0.66-0.09L171.54,296.8z M168.62,294.64c1.04,0,1.72-0.94,1.72-2.46c0-1.47-0.68-2.36-1.72-2.36
		c-1.04,0-1.71,0.89-1.71,2.36C166.91,293.7,167.58,294.64,168.62,294.64z"/>
</g>
<line class="st1" x1="166.2" y1="271.59" x2="166.2" y2="284.68"/>
</svg>
