<?xml version="1.0" encoding="utf-8"?>
<!-- Generator: Adobe Illustrator 26.2.1, SVG Export Plug-In . SVG Version: 6.00 Build 0)  -->
<svg version="1.1" id="Layer_1" xmlns="http://www.w3.org/2000/svg" xmlns:xlink="http://www.w3.org/1999/xlink" x="0px" y="0px"
	 viewBox="0 0 406.9 342.5" style="enable-background:new 0 0 406.9 342.5;" xml:space="preserve">
<style type="text/css">
	.st0{display:none;}
	.st1{display:inline;}
	.st2{fill:#898989;}
	.st3{fill:#686868;}
	.st4{fill:#444444;}
	.st5{enable-background:new    ;}
	.st6{fill:#FFFFFF;}
	.st7{fill:#BABABA;}
	.st8{fill:none;stroke:#262626;stroke-width:2;stroke-linecap:round;stroke-miterlimit:10;}
	.st9{fill:none;stroke:#4C4C4C;stroke-width:2;stroke-linecap:round;stroke-miterlimit:10;}
</style>
<g id="Layer_2_00000103249688522006712320000002932546944066166972_" class="st0">
	<rect y="0" class="st1" width="406.9" height="342.5"/>
</g>
<path class="st2" d="M198.3,114.7V38.3c-26.7,0-51.7,7.8-72.7,21.3l41.2,64.3C175.9,118.1,186.7,114.7,198.3,114.7z"/>
<path class="st3" d="M166.9,124l-41.2-64.3c-37.3,24-62,65.8-62,113.3h76.4C140.1,152.4,150.8,134.3,166.9,124z"/>
<path class="st4" d="M198.3,38.3L198.3,38.3v76.4l0,0c32.1,0,58.2,26.1,58.2,58.2s-26.1,58.2-58.2,58.2S140,205.1,140,173H63.6
	c0,74.3,60.4,134.7,134.7,134.7S333,247.2,333,173S272.5,38.3,198.3,38.3z"/>
<g class="st5">
	<path class="st6" d="M222.1,266.2l5.4-11.7h-7v-2.5h10.2v1.9l-5.4,12.4H222.1z"/>
	<path class="st6" d="M242,259c0,1.5-0.2,2.8-0.5,3.9c-0.3,1.1-0.9,1.9-1.6,2.5c-0.7,0.6-1.7,0.9-2.9,0.9c-1.7,0-3-0.6-3.8-1.9
		c-0.8-1.3-1.2-3.1-1.2-5.4c0-1.5,0.2-2.9,0.5-4c0.3-1.1,0.8-1.9,1.6-2.5s1.7-0.9,2.9-0.9c1.7,0,3,0.6,3.8,1.9
		C241.6,254.9,242,256.7,242,259z M235,259c0,1.6,0.1,2.8,0.4,3.7c0.3,0.8,0.8,1.2,1.6,1.2c0.7,0,1.3-0.4,1.6-1.2
		c0.3-0.8,0.4-2,0.4-3.7c0-1.6-0.1-2.9-0.4-3.7c-0.3-0.8-0.8-1.2-1.6-1.2c-0.8,0-1.3,0.4-1.6,1.2C235.2,256.2,235,257.4,235,259z"/>
	<path class="st6" d="M246.7,251.7c1.1,0,2,0.4,2.6,1.2c0.6,0.8,0.9,1.9,0.9,3.3c0,1.4-0.3,2.5-0.8,3.3c-0.5,0.8-1.4,1.2-2.6,1.2
		c-1.1,0-1.9-0.4-2.5-1.2s-0.8-1.9-0.8-3.3c0-1.4,0.3-2.5,0.8-3.3C244.7,252.1,245.5,251.7,246.7,251.7z M246.7,253.7
		c-0.6,0-0.9,0.8-0.9,2.4c0,1.6,0.3,2.5,0.9,2.5c0.6,0,0.9-0.8,0.9-2.5C247.7,254.5,247.4,253.7,246.7,253.7z M256.9,251.9
		l-7.9,14.3h-2.3l7.9-14.3H256.9z M256.7,257.4c1.1,0,2,0.4,2.6,1.2c0.6,0.8,0.9,1.9,0.9,3.3c0,1.4-0.3,2.5-0.8,3.3
		c-0.5,0.8-1.4,1.2-2.6,1.2c-1.1,0-1.9-0.4-2.5-1.2s-0.8-1.9-0.8-3.3c0-1.4,0.3-2.5,0.8-3.3C254.7,257.8,255.5,257.4,256.7,257.4z
		 M256.7,259.4c-0.6,0-0.9,0.8-0.9,2.4c0,1.6,0.3,2.5,0.9,2.5c0.6,0,0.9-0.8,0.9-2.5C257.7,260.2,257.4,259.4,256.7,259.4z"/>
</g>
<g class="st5">
	<path class="st6" d="M101.9,135.7h-10v-2.1l3.6-3.6c0.7-0.7,1.3-1.4,1.7-1.9s0.8-1,1-1.4c0.2-0.4,0.3-0.8,0.3-1.3
		c0-0.6-0.2-1-0.5-1.3c-0.3-0.3-0.7-0.4-1.3-0.4c-0.5,0-1.1,0.1-1.6,0.4c-0.5,0.3-1.1,0.6-1.6,1.1l-1.6-1.9c0.4-0.3,0.8-0.7,1.3-1
		c0.5-0.3,1-0.6,1.6-0.8c0.6-0.2,1.3-0.3,2.2-0.3c0.9,0,1.7,0.2,2.4,0.5s1.2,0.8,1.6,1.4c0.4,0.6,0.5,1.2,0.5,2
		c0,0.8-0.2,1.5-0.5,2.2c-0.3,0.7-0.8,1.3-1.4,1.9c-0.6,0.6-1.3,1.3-2.1,2.1l-1.8,1.7v0.1h6.2V135.7z"/>
	<path class="st6" d="M113.2,128.5c0,1.5-0.2,2.8-0.5,3.9c-0.3,1.1-0.9,1.9-1.6,2.5c-0.7,0.6-1.7,0.9-2.9,0.9c-1.7,0-3-0.6-3.8-1.9
		c-0.8-1.3-1.2-3.1-1.2-5.4c0-1.5,0.2-2.9,0.5-4c0.3-1.1,0.8-1.9,1.6-2.5s1.7-0.9,2.9-0.9c1.7,0,3,0.6,3.8,1.9
		C112.8,124.4,113.2,126.2,113.2,128.5z M106.3,128.5c0,1.6,0.1,2.8,0.4,3.7c0.3,0.8,0.8,1.2,1.6,1.2c0.7,0,1.3-0.4,1.6-1.2
		c0.3-0.8,0.4-2,0.4-3.7c0-1.6-0.1-2.9-0.4-3.7c-0.3-0.8-0.8-1.2-1.6-1.2c-0.8,0-1.3,0.4-1.6,1.2
		C106.4,125.7,106.3,126.9,106.3,128.5z"/>
	<path class="st6" d="M118,121.2c1.1,0,2,0.4,2.5,1.2c0.6,0.8,0.9,1.9,0.9,3.3c0,1.4-0.3,2.5-0.8,3.3c-0.5,0.8-1.4,1.2-2.6,1.2
		c-1.1,0-1.9-0.4-2.5-1.2c-0.6-0.8-0.9-1.9-0.9-3.3c0-1.4,0.3-2.5,0.8-3.3C115.9,121.6,116.8,121.2,118,121.2z M118,123.2
		c-0.6,0-0.9,0.8-0.9,2.4c0,1.6,0.3,2.5,0.9,2.5c0.6,0,0.9-0.8,0.9-2.5C118.9,124,118.6,123.2,118,123.2z M128.1,121.4l-7.9,14.3
		h-2.3l7.9-14.3H128.1z M128,126.9c1.1,0,2,0.4,2.5,1.2c0.6,0.8,0.9,1.9,0.9,3.3c0,1.4-0.3,2.5-0.8,3.3c-0.5,0.8-1.4,1.2-2.6,1.2
		c-1.1,0-1.9-0.4-2.5-1.2c-0.6-0.8-0.9-1.9-0.9-3.3c0-1.4,0.3-2.5,0.8-3.3C125.9,127.3,126.8,126.9,128,126.9z M128,128.9
		c-0.6,0-0.9,0.8-0.9,2.4c0,1.6,0.3,2.5,0.9,2.5c0.6,0,0.9-0.8,0.9-2.5C128.9,129.7,128.6,128.9,128,128.9z"/>
</g>
<g class="st5">
	<path class="st6" d="M157.1,89.4h-3v-8.3c0-0.3,0-0.8,0-1.4c0-0.6,0-1.1,0.1-1.5c-0.1,0.1-0.2,0.2-0.4,0.4
		c-0.2,0.2-0.4,0.4-0.6,0.5l-1.6,1.3l-1.5-1.8l4.6-3.7h2.5V89.4z"/>
	<path class="st6" d="M171,82.2c0,1.5-0.2,2.8-0.5,3.9c-0.3,1.1-0.9,1.9-1.6,2.5c-0.7,0.6-1.7,0.9-2.9,0.9c-1.7,0-3-0.6-3.8-1.9
		c-0.8-1.3-1.2-3.1-1.2-5.4c0-1.5,0.2-2.9,0.5-4c0.3-1.1,0.8-1.9,1.6-2.5s1.7-0.9,2.9-0.9c1.7,0,3,0.6,3.8,1.9
		C170.6,78.1,171,79.9,171,82.2z M164,82.2c0,1.6,0.1,2.8,0.4,3.7c0.3,0.8,0.8,1.2,1.6,1.2c0.7,0,1.3-0.4,1.6-1.2
		c0.3-0.8,0.4-2,0.4-3.7c0-1.6-0.1-2.9-0.4-3.7c-0.3-0.8-0.8-1.2-1.6-1.2c-0.8,0-1.3,0.4-1.6,1.2C164.2,79.4,164,80.6,164,82.2z"/>
	<path class="st6" d="M175.7,74.9c1.1,0,2,0.4,2.5,1.2c0.6,0.8,0.9,1.9,0.9,3.3c0,1.4-0.3,2.5-0.8,3.3c-0.5,0.8-1.4,1.2-2.6,1.2
		c-1.1,0-1.9-0.4-2.5-1.2c-0.6-0.8-0.9-1.9-0.9-3.3c0-1.4,0.3-2.5,0.8-3.3C173.7,75.3,174.6,74.9,175.7,74.9z M175.8,76.9
		c-0.6,0-0.9,0.8-0.9,2.4c0,1.6,0.3,2.5,0.9,2.5c0.6,0,0.9-0.8,0.9-2.5C176.7,77.7,176.4,76.9,175.8,76.9z M185.9,75.1L178,89.4
		h-2.3l7.9-14.3H185.9z M185.7,80.6c1.1,0,2,0.4,2.5,1.2c0.6,0.8,0.9,1.9,0.9,3.3c0,1.4-0.3,2.5-0.8,3.3c-0.5,0.8-1.4,1.2-2.6,1.2
		c-1.1,0-1.9-0.4-2.5-1.2c-0.6-0.8-0.9-1.9-0.9-3.3c0-1.4,0.3-2.5,0.8-3.3C183.7,81,184.6,80.6,185.7,80.6z M185.8,82.6
		c-0.6,0-0.9,0.8-0.9,2.4c0,1.6,0.3,2.5,0.9,2.5c0.6,0,0.9-0.8,0.9-2.5C186.7,83.4,186.4,82.6,185.8,82.6z"/>
</g>
<g class="st5">
	<path class="st7" d="M54.3,74.9c0,1-0.4,1.8-1.1,2.4s-1.7,0.9-3,0.9c-0.6,0-1.2-0.1-1.8-0.2c-0.5-0.1-1-0.2-1.4-0.4V76
		c0.4,0.2,0.9,0.4,1.5,0.5c0.6,0.2,1.2,0.2,1.8,0.2c0.8,0,1.3-0.1,1.7-0.4s0.6-0.7,0.6-1.2c0-0.4-0.1-0.6-0.3-0.9
		c-0.2-0.2-0.4-0.5-0.8-0.7c-0.4-0.2-0.9-0.4-1.5-0.7c-0.6-0.2-1.1-0.5-1.5-0.8c-0.4-0.3-0.8-0.6-1-1.1c-0.2-0.4-0.4-0.9-0.4-1.6
		c0-0.9,0.3-1.7,1-2.2c0.7-0.5,1.6-0.8,2.7-0.8c0.6,0,1.2,0.1,1.7,0.2c0.5,0.1,1,0.3,1.5,0.5l-0.5,1.4c-0.4-0.2-0.9-0.3-1.3-0.4
		c-0.5-0.1-0.9-0.2-1.4-0.2c-0.6,0-1.1,0.1-1.4,0.4s-0.5,0.6-0.5,1.1c0,0.4,0.1,0.6,0.2,0.9s0.4,0.5,0.8,0.7s0.8,0.4,1.4,0.6
		c0.6,0.3,1.2,0.5,1.6,0.8c0.5,0.3,0.8,0.6,1,1C54.2,73.8,54.3,74.3,54.3,74.9z"/>
	<path class="st7" d="M59.7,69.2c1.1,0,1.9,0.2,2.4,0.7c0.5,0.5,0.8,1.2,0.8,2.2V78h-1.2l-0.3-1.2h-0.1c-0.4,0.5-0.8,0.8-1.2,1
		s-1,0.3-1.7,0.3c-0.8,0-1.4-0.2-1.9-0.6c-0.5-0.4-0.8-1.1-0.8-2c0-0.9,0.3-1.6,1-2c0.7-0.5,1.7-0.7,3-0.7l1.5,0v-0.5
		c0-0.6-0.1-1.1-0.4-1.3c-0.3-0.3-0.7-0.4-1.2-0.4c-0.4,0-0.9,0.1-1.3,0.2c-0.4,0.1-0.8,0.3-1.2,0.5L56.7,70
		c0.4-0.2,0.9-0.4,1.4-0.5C58.6,69.3,59.2,69.2,59.7,69.2z M61.3,73.9l-1.2,0c-1,0-1.7,0.2-2,0.5c-0.4,0.3-0.6,0.7-0.6,1.2
		c0,0.4,0.1,0.8,0.4,1c0.3,0.2,0.6,0.3,1,0.3c0.7,0,1.2-0.2,1.7-0.6c0.4-0.4,0.7-0.9,0.7-1.7V73.9z"/>
	<path class="st7" d="M67.3,78h-1.7V65.9h1.7V78z"/>
	<path class="st7" d="M73.3,69.2c1.1,0,2,0.3,2.7,1c0.7,0.7,1,1.7,1,2.9v0.9h-5.8c0,0.9,0.3,1.6,0.7,2c0.4,0.5,1.1,0.7,1.9,0.7
		c0.6,0,1-0.1,1.5-0.2c0.4-0.1,0.9-0.3,1.3-0.5v1.4c-0.4,0.2-0.9,0.3-1.3,0.4c-0.4,0.1-1,0.1-1.6,0.1c-0.8,0-1.6-0.2-2.2-0.5
		c-0.6-0.3-1.1-0.8-1.5-1.5c-0.4-0.7-0.5-1.5-0.5-2.4s0.2-1.8,0.5-2.5s0.8-1.2,1.4-1.5C71.9,69.4,72.5,69.2,73.3,69.2z M73.3,70.6
		c-0.6,0-1.1,0.2-1.5,0.6c-0.4,0.4-0.6,1-0.6,1.7h4.1c0-0.7-0.2-1.2-0.5-1.6C74.5,70.8,74,70.6,73.3,70.6z"/>
	<path class="st7" d="M84.8,75.6c0,0.9-0.3,1.5-0.9,1.9c-0.6,0.4-1.5,0.7-2.6,0.7c-0.6,0-1.1,0-1.6-0.1c-0.4-0.1-0.8-0.2-1.2-0.4
		v-1.5c0.4,0.2,0.8,0.3,1.3,0.5c0.5,0.1,1,0.2,1.5,0.2c0.6,0,1.1-0.1,1.4-0.3c0.3-0.2,0.4-0.5,0.4-0.8c0-0.2-0.1-0.4-0.2-0.5
		c-0.1-0.2-0.3-0.3-0.6-0.5c-0.3-0.2-0.7-0.4-1.3-0.6c-0.6-0.2-1-0.4-1.4-0.7c-0.4-0.2-0.7-0.5-0.9-0.8s-0.3-0.7-0.3-1.2
		c0-0.7,0.3-1.3,0.9-1.7c0.6-0.4,1.4-0.6,2.4-0.6c0.5,0,1,0.1,1.5,0.2s0.9,0.3,1.4,0.4l-0.6,1.3c-0.4-0.2-0.8-0.3-1.2-0.4
		c-0.4-0.1-0.8-0.2-1.2-0.2c-1,0-1.6,0.3-1.6,0.9c0,0.2,0.1,0.4,0.2,0.5c0.1,0.1,0.3,0.3,0.6,0.4c0.3,0.1,0.7,0.3,1.3,0.5
		c0.5,0.2,1,0.4,1.4,0.6s0.7,0.5,0.9,0.8S84.8,75.1,84.8,75.6z"/>
</g>
<g class="st5">
	<path class="st7" d="M117.5,37.3h-1.7v-9.9h-3.4v-1.5h8.6v1.5h-3.4V37.3z"/>
	<path class="st7" d="M124.8,28.5c1.1,0,2,0.3,2.7,1c0.7,0.7,1,1.7,1,2.9v0.9h-5.8c0,0.9,0.3,1.6,0.7,2c0.4,0.5,1.1,0.7,1.9,0.7
		c0.6,0,1-0.1,1.5-0.2c0.4-0.1,0.9-0.3,1.3-0.5v1.4c-0.4,0.2-0.9,0.3-1.3,0.4c-0.4,0.1-1,0.1-1.6,0.1c-0.8,0-1.6-0.2-2.2-0.5
		c-0.6-0.3-1.1-0.8-1.5-1.5c-0.4-0.7-0.5-1.5-0.5-2.4s0.2-1.8,0.5-2.5s0.8-1.2,1.4-1.5C123.3,28.7,124,28.5,124.8,28.5z M124.8,29.8
		c-0.6,0-1.1,0.2-1.5,0.6c-0.4,0.4-0.6,1-0.6,1.7h4.1c0-0.7-0.2-1.2-0.5-1.6C125.9,30,125.4,29.8,124.8,29.8z"/>
	<path class="st7" d="M133.9,28.5c1.1,0,1.9,0.2,2.4,0.7c0.5,0.5,0.8,1.2,0.8,2.2v5.8h-1.2l-0.3-1.2h-0.1c-0.4,0.5-0.8,0.8-1.2,1
		s-1,0.3-1.7,0.3c-0.8,0-1.4-0.2-1.9-0.6c-0.5-0.4-0.8-1.1-0.8-2c0-0.9,0.3-1.6,1-2c0.7-0.5,1.7-0.7,3-0.7l1.5,0v-0.5
		c0-0.6-0.1-1.1-0.4-1.3c-0.3-0.3-0.7-0.4-1.2-0.4c-0.4,0-0.9,0.1-1.3,0.2c-0.4,0.1-0.8,0.3-1.2,0.5l-0.5-1.2
		c0.4-0.2,0.9-0.4,1.4-0.5C132.8,28.6,133.3,28.5,133.9,28.5z M135.4,33.2l-1.2,0c-1,0-1.7,0.2-2,0.5c-0.4,0.3-0.6,0.7-0.6,1.2
		c0,0.4,0.1,0.8,0.4,1c0.3,0.2,0.6,0.3,1,0.3c0.7,0,1.2-0.2,1.7-0.6c0.4-0.4,0.7-0.9,0.7-1.7V33.2z"/>
	<path class="st7" d="M149.4,28.5c1,0,1.7,0.3,2.2,0.8c0.5,0.5,0.7,1.3,0.7,2.4v5.6h-1.7v-5.4c0-1.3-0.5-2-1.6-2
		c-0.8,0-1.3,0.2-1.6,0.7s-0.5,1.2-0.5,2v4.6h-1.7v-5.4c0-1.3-0.5-2-1.6-2c-0.8,0-1.4,0.3-1.7,0.8c-0.3,0.5-0.5,1.3-0.5,2.3v4.4
		h-1.7v-8.6h1.3l0.2,1.2h0.1c0.3-0.4,0.6-0.8,1.1-1c0.5-0.2,0.9-0.3,1.4-0.3c1.3,0,2.2,0.5,2.6,1.4h0.1c0.3-0.5,0.7-0.8,1.2-1
		C148.3,28.6,148.8,28.5,149.4,28.5z"/>
</g>
<g class="st5">
	<path class="st7" d="M317.7,258.8c1.5,0,2.5,0.3,3.2,0.8c0.7,0.5,1,1.4,1,2.5c0,0.6-0.1,1.1-0.3,1.5c-0.2,0.4-0.5,0.7-0.8,1
		c-0.3,0.3-0.7,0.5-1.1,0.6l3.2,5.1h-2l-2.8-4.6h-2v4.6h-1.7v-11.4H317.7z M317.6,260.2h-1.4v3.9h1.4c0.9,0,1.5-0.2,1.9-0.5
		s0.6-0.8,0.6-1.5c0-0.7-0.2-1.2-0.6-1.5C319.2,260.4,318.5,260.2,317.6,260.2z"/>
	<path class="st7" d="M327.9,261.4c1.1,0,2,0.3,2.7,1c0.7,0.7,1,1.7,1,2.9v0.9h-5.8c0,0.9,0.3,1.6,0.7,2c0.4,0.5,1.1,0.7,1.9,0.7
		c0.6,0,1-0.1,1.5-0.2s0.9-0.3,1.3-0.5v1.4c-0.4,0.2-0.9,0.3-1.3,0.4c-0.4,0.1-1,0.1-1.6,0.1c-0.8,0-1.6-0.2-2.2-0.5
		c-0.6-0.3-1.1-0.8-1.5-1.5c-0.4-0.7-0.5-1.5-0.5-2.4s0.2-1.8,0.5-2.5s0.8-1.2,1.4-1.5C326.4,261.6,327.1,261.4,327.9,261.4z
		 M327.9,262.7c-0.6,0-1.1,0.2-1.5,0.6c-0.4,0.4-0.6,1-0.6,1.7h4.1c0-0.7-0.2-1.2-0.5-1.6C329,262.9,328.5,262.7,327.9,262.7z"/>
	<path class="st7" d="M339.3,267.7c0,0.9-0.3,1.5-0.9,1.9s-1.5,0.7-2.6,0.7c-0.6,0-1.1,0-1.6-0.1c-0.4-0.1-0.8-0.2-1.2-0.4v-1.5
		c0.4,0.2,0.8,0.3,1.3,0.5c0.5,0.1,1,0.2,1.5,0.2c0.6,0,1.1-0.1,1.4-0.3c0.3-0.2,0.4-0.5,0.4-0.8c0-0.2-0.1-0.4-0.2-0.5
		c-0.1-0.2-0.3-0.3-0.6-0.5c-0.3-0.2-0.7-0.4-1.3-0.6c-0.6-0.2-1-0.4-1.4-0.7c-0.4-0.2-0.7-0.5-0.9-0.8c-0.2-0.3-0.3-0.7-0.3-1.2
		c0-0.7,0.3-1.3,0.9-1.7c0.6-0.4,1.4-0.6,2.4-0.6c0.5,0,1,0.1,1.5,0.2s0.9,0.3,1.4,0.4l-0.6,1.3c-0.4-0.2-0.8-0.3-1.2-0.4
		c-0.4-0.1-0.8-0.2-1.2-0.2c-1,0-1.6,0.3-1.6,0.9c0,0.2,0.1,0.4,0.2,0.5c0.1,0.1,0.3,0.3,0.6,0.4c0.3,0.1,0.7,0.3,1.3,0.5
		c0.5,0.2,1,0.4,1.4,0.6c0.4,0.2,0.7,0.5,0.9,0.8C339.2,266.9,339.3,267.3,339.3,267.7z"/>
	<path class="st7" d="M344.8,261.4c1.1,0,2,0.3,2.7,1c0.7,0.7,1,1.7,1,2.9v0.9h-5.8c0,0.9,0.3,1.6,0.7,2c0.4,0.5,1.1,0.7,1.9,0.7
		c0.6,0,1-0.1,1.5-0.2s0.9-0.3,1.3-0.5v1.4c-0.4,0.2-0.9,0.3-1.3,0.4c-0.4,0.1-1,0.1-1.6,0.1c-0.8,0-1.6-0.2-2.2-0.5
		c-0.6-0.3-1.1-0.8-1.5-1.5c-0.4-0.7-0.5-1.5-0.5-2.4s0.2-1.8,0.5-2.5s0.8-1.2,1.4-1.5C343.3,261.6,344,261.4,344.8,261.4z
		 M344.8,262.7c-0.6,0-1.1,0.2-1.5,0.6c-0.4,0.4-0.6,1-0.6,1.7h4.1c0-0.7-0.2-1.2-0.5-1.6C345.9,262.9,345.4,262.7,344.8,262.7z"/>
	<path class="st7" d="M354.8,261.4c0.3,0,0.7,0,0.9,0.1l-0.2,1.6c-0.3-0.1-0.6-0.1-0.9-0.1c-0.4,0-0.8,0.1-1.2,0.3
		c-0.4,0.2-0.7,0.5-0.9,0.9c-0.2,0.4-0.3,0.9-0.3,1.4v4.5h-1.7v-8.6h1.3l0.2,1.5h0.1c0.3-0.5,0.6-0.9,1.1-1.2
		S354.2,261.4,354.8,261.4z"/>
	<path class="st7" d="M359.2,270.2l-3.3-8.6h1.8l1.8,5c0.1,0.3,0.2,0.7,0.3,1.1s0.2,0.7,0.2,1h0.1c0-0.3,0.1-0.6,0.3-1
		c0.1-0.4,0.2-0.8,0.4-1.1l1.8-5h1.8l-3.3,8.6H359.2z"/>
	<path class="st7" d="M369.1,261.4c1.1,0,2,0.3,2.7,1c0.7,0.7,1,1.7,1,2.9v0.9H367c0,0.9,0.3,1.6,0.7,2s1.1,0.7,1.9,0.7
		c0.6,0,1-0.1,1.5-0.2c0.4-0.1,0.9-0.3,1.3-0.5v1.4c-0.4,0.2-0.9,0.3-1.3,0.4c-0.4,0.1-1,0.1-1.6,0.1c-0.8,0-1.6-0.2-2.2-0.5
		c-0.6-0.3-1.1-0.8-1.5-1.5c-0.4-0.7-0.5-1.5-0.5-2.4s0.2-1.8,0.5-2.5s0.8-1.2,1.4-1.5S368.3,261.4,369.1,261.4z M369.1,262.7
		c-0.6,0-1.1,0.2-1.5,0.6s-0.6,1-0.6,1.7h4.1c0-0.7-0.2-1.2-0.5-1.6C370.3,262.9,369.8,262.7,369.1,262.7z"/>
	<path class="st7" d="M380.6,267.7c0,0.9-0.3,1.5-0.9,1.9c-0.6,0.4-1.5,0.7-2.6,0.7c-0.6,0-1.1,0-1.6-0.1c-0.4-0.1-0.8-0.2-1.2-0.4
		v-1.5c0.4,0.2,0.8,0.3,1.3,0.5c0.5,0.1,1,0.2,1.5,0.2c0.6,0,1.1-0.1,1.4-0.3c0.3-0.2,0.4-0.5,0.4-0.8c0-0.2-0.1-0.4-0.2-0.5
		s-0.3-0.3-0.6-0.5c-0.3-0.2-0.7-0.4-1.3-0.6c-0.6-0.2-1-0.4-1.4-0.7s-0.7-0.5-0.9-0.8c-0.2-0.3-0.3-0.7-0.3-1.2
		c0-0.7,0.3-1.3,0.9-1.7c0.6-0.4,1.4-0.6,2.4-0.6c0.5,0,1,0.1,1.5,0.2s0.9,0.3,1.4,0.4l-0.6,1.3c-0.4-0.2-0.8-0.3-1.2-0.4
		s-0.8-0.2-1.2-0.2c-1,0-1.6,0.3-1.6,0.9c0,0.2,0.1,0.4,0.2,0.5c0.1,0.1,0.3,0.3,0.6,0.4c0.3,0.1,0.7,0.3,1.3,0.5
		c0.5,0.2,1,0.4,1.4,0.6c0.4,0.2,0.7,0.5,0.9,0.8C380.5,266.9,380.6,267.3,380.6,267.7z"/>
</g>
<polyline class="st8" points="282.9,233.2 307.3,252 343.1,251.7 "/>
<polyline class="st9" points="119.2,102.4 97.4,83.9 63.6,83.9 "/>
<polyline class="st9" points="177.4,59.6 166.9,42 132.2,42 "/>
</svg>
